<?xml version="1.0" encoding="utf-8"?>
<!-- Generator: Adobe Illustrator 26.0.3, SVG Export Plug-In . SVG Version: 6.00 Build 0)  -->
<svg version="1.1" id="Logo" xmlns="http://www.w3.org/2000/svg" xmlns:xlink="http://www.w3.org/1999/xlink" x="0px" y="0px"
	 viewBox="0 0 649.49 124.84" style="enable-background:new 0 0 649.49 124.84;" xml:space="preserve">
<style type="text/css">
	.st0{fill:#858985;}
	.st1{fill:#424242;}
	.st2{fill:none;}
	.st3{fill:#C14040;}
	.st4{font-family:'Crosshatcher';}
	.st5{font-size:99px;}
	.st6{fill:#4CC14C;}
	.st7{fill:#D3B537;}
	.st8{fill:#1884EF;}
	.st9{fill:#D17DD3;}
</style>
<g id="Underline">
	<g>
		<path class="st0" d="M609.45,99.92c0,0.11-0.04,0.19-0.12,0.24c-7.78,7.62-12.48,12.62-14.09,15.01l16.87-12.5
			c0.13-0.11,0.27-0.11,0.4,0l0.08,0.12l0.04,0.16c0,0.32-1.59,2.08-4.76,5.28l-0.79,0.79l-0.83,0.83
			c-0.61,0.66-1.15,1.23-1.63,1.71c-1.19,1.24-1.98,2.13-2.38,2.66c0.56-0.37,1.5-1.15,2.82-2.34c0.5-0.45,1.09-0.98,1.75-1.59
			l0.83-0.79l0.44-0.36l0.36-0.4c2.12-1.96,3.43-3.12,3.93-3.49c0.45-0.34,0.77-0.44,0.95-0.28c0.05,0.05,0.08,0.12,0.08,0.2
			c0.03,0.08,0,0.16-0.08,0.24c-1.03,1.06-2.05,2.13-3.06,3.22c0.98-0.85,1.68-1.35,2.1-1.51c0.16-0.08,0.29-0.11,0.4-0.08
			l0.08,0.04l0.08,0.08l0.12,0.16c0.05,0.08,0.07,0.13,0.04,0.16c0,0.18-0.13,0.48-0.4,0.87l0.04,0.04v0.04l-0.04,0.12l-0.04,0.12
			c-0.66,0.69-1.23,1.28-1.71,1.79l-0.56,0.56c-0.98,1.03-1.73,1.87-2.26,2.5c3.52-1.72,5.37-2.5,5.56-2.34
			c0.08,0.08,0.12,0.16,0.12,0.24c0,0.08-0.03,0.16-0.08,0.24c-0.32,0.34-0.75,0.82-1.31,1.43l-0.32,0.36l-0.28,0.32
			c-0.24,0.26-0.41,0.45-0.52,0.56l1.79,0.32c0.18,0.05,0.28,0.16,0.28,0.32c-0.03,0.13-0.13,0.29-0.32,0.48
			c-0.13,0.13-0.28,0.13-0.44,0c-0.08-0.08-0.11-0.16-0.08-0.24l-1.91-0.36c-0.05,0-0.11-0.03-0.16-0.08
			c-0.11-0.11-0.08-0.26,0.08-0.48c0.19-0.24,0.78-0.93,1.79-2.06c-0.61,0.29-1.43,0.69-2.46,1.19c-0.85,0.4-1.72,0.81-2.62,1.23
			c-0.13,0.05-0.25,0.04-0.36-0.04l-0.04-0.08l-0.36,0.36l-0.32,0.28c-0.16,0.13-0.29,0.12-0.4-0.04c-0.16-0.11-0.17-0.24-0.04-0.4
			c0.48-0.58,0.97-1.15,1.47-1.71c0.63-0.74,1.23-1.42,1.79-2.02c1.51-1.59,2.53-2.51,3.06-2.78l0.16-0.2l0.12-0.16
			c-0.19,0.11-0.42,0.28-0.71,0.52c-0.37,0.26-0.79,0.62-1.27,1.07c-1.27,1.14-2.92,2.75-4.96,4.84c-0.19,0.18-0.33,0.28-0.44,0.28
			c-0.08,0-0.15-0.03-0.2-0.08c-0.08-0.05-0.12-0.13-0.12-0.24v-0.08c0.03-0.03,0.05-0.07,0.08-0.12c0.05-0.13,0.19-0.33,0.4-0.6
			c0.61-0.77,1.76-2.08,3.45-3.93c-2.67,2.51-4.47,4.11-5.4,4.8c-0.9,0.69-1.48,0.93-1.75,0.71l-0.08-0.16l-0.04-0.16
			c0-0.48,2.05-2.78,6.15-6.91c1.35-1.38,2.36-2.42,3.02-3.14l-15.64,11.63c-0.13,0.11-0.26,0.11-0.4,0l-0.08-0.16
			c-0.05-0.05-0.08-0.12-0.08-0.2c0-0.71,1.85-3.04,5.56-6.99c1.32-1.4,2.86-2.99,4.6-4.76c0.66-0.66,1.34-1.35,2.02-2.06
			c0.56-0.53,1.1-1.06,1.63-1.59c-0.95,0.61-2.65,2.04-5.08,4.29c-0.9,0.82-1.93,1.8-3.1,2.94c-0.42,0.4-0.9,0.86-1.43,1.39
			l-0.67,0.64l-0.64,0.6c-2.78,2.73-4.5,4.35-5.16,4.88c-0.58,0.5-0.97,0.66-1.15,0.48c-0.08-0.05-0.12-0.13-0.12-0.24v-0.12
			l0.08-0.08l10.24-11.39c-1.46,1.08-3.2,2.41-5.24,3.97c-4.66,3.55-7.41,5.61-8.26,6.19c-0.79,0.58-1.27,0.81-1.43,0.67
			c-0.08-0.08-0.12-0.19-0.12-0.32c-0.03-0.05-0.03-0.12,0-0.2c-1.69,1.64-2.65,2.37-2.86,2.18c-0.08-0.05-0.12-0.13-0.12-0.24
			c0-0.29,2.22-2.79,6.67-7.5c0.77-0.82,1.36-1.46,1.79-1.91c0.66-0.74,1.24-1.38,1.75-1.91c1.27-1.35,2.13-2.29,2.58-2.82
			c-1.64,0.85-5.5,4.25-11.59,10.2c-1.67,1.69-2.78,2.82-3.33,3.37c-0.16,0.13-0.32,0.13-0.48,0c-0.13-0.16-0.13-0.3,0-0.44
			c0.87-0.9,2.09-2.13,3.65-3.69c5.16-5.21,8.2-8.55,9.13-10c-1.03,0.71-3.29,2.66-6.79,5.84c-2.83,2.57-5.84,5.36-9.01,8.38
			c-0.08,0.11-0.18,0.13-0.32,0.08c-0.08-0.03-0.15-0.08-0.2-0.16c-0.53,0.45-0.93,0.69-1.19,0.71c-0.08,0-0.15-0.01-0.2-0.04
			l-0.16-0.08c-0.08-0.05-0.12-0.13-0.12-0.24c0-0.08,0.05-0.19,0.16-0.32l-0.08-0.04c-0.05-0.03-0.09-0.08-0.12-0.16
			c-0.03-0.05-0.04-0.13-0.04-0.24c0.03-0.4,0.38-1.03,1.07-1.91c-0.98,0.82-1.67,1.34-2.06,1.55c-0.16,0.08-0.28,0.12-0.36,0.12
			l-0.12-0.04l-0.04-0.04l-0.12-0.16c-0.03-0.05-0.04-0.12-0.04-0.2c0-0.11,0.04-0.25,0.12-0.44c-0.64,0.61-1.1,1.02-1.39,1.23
			l-0.12,0.16l-0.04-0.04c-0.19,0.13-0.32,0.15-0.4,0.04c-0.05-0.05-0.09-0.12-0.12-0.2c-0.03-0.08,0-0.16,0.08-0.24l9.09-10.08
			c-0.74,0.74-1.53,1.56-2.38,2.46c-3.25,3.36-5.37,5.49-6.35,6.39c-1.01,0.87-1.65,1.19-1.94,0.95c-0.08-0.08-0.12-0.17-0.12-0.28
			l-1.11,1.15c-0.13,0.16-0.28,0.17-0.44,0.04c-0.05-0.05-0.09-0.11-0.12-0.16c-0.03-0.08-0.04-0.16-0.04-0.24v-0.08l-0.32,0.32
			l-0.32,0.32c-0.13,0.16-0.28,0.16-0.44,0c-0.16-0.13-0.16-0.28,0-0.44l13.02-14.45c-0.85,0.58-2.24,1.84-4.17,3.77
			c-0.71,0.71-1.55,1.56-2.5,2.54c-0.37,0.34-0.78,0.75-1.23,1.23l-0.56,0.6l-0.52,0.56c-2.8,2.91-4.6,4.71-5.4,5.4
			c-0.79,0.69-1.31,0.93-1.55,0.71l-0.12-0.12c-0.03-0.08-0.04-0.16-0.04-0.24c0-0.45,0.73-1.52,2.18-3.22
			c1.14-1.35,2.73-3.07,4.76-5.16c-2.8,2.49-6.07,5.41-9.8,8.77c-0.16,0.16-0.3,0.16-0.44,0c-0.16-0.16-0.16-0.3,0-0.44
			c5.27-5.16,8.97-9.04,11.12-11.63c-5.82,5.77-9.9,9.57-12.23,11.39c-0.85,0.66-1.46,1.06-1.83,1.19
			c-0.13,0.05-0.24,0.07-0.32,0.04h-0.08l-0.04-0.08l-0.12-0.12c-0.03-0.05-0.04-0.12-0.04-0.2c0-0.37,0.57-1.23,1.71-2.58
			c-1.64,1.38-2.7,1.85-3.18,1.43c-0.16-0.13-0.16-0.28,0-0.44l10.8-12.03c-1.06,1.01-2.42,2.4-4.09,4.17l-8.65,9.61
			c-0.13,0.16-0.28,0.17-0.44,0.04c-0.18-0.16-0.2-0.3-0.04-0.44c0.4-0.48,0.86-1.01,1.39-1.59c0.69-0.79,1.39-1.59,2.1-2.38
			c1.96-2.2,3.72-4.12,5.28-5.76l2.14-2.42c-1.48,1.46-3.35,3.35-5.6,5.68c-1.88,1.93-3.78,3.93-5.72,5.99
			c-0.16,0.13-0.3,0.13-0.44,0c-0.08-0.05-0.12-0.13-0.12-0.24c0-0.26,1.64-2.09,4.92-5.48l0.71-0.75l0.75-0.75
			c0.58-0.61,1.1-1.15,1.55-1.63c1.19-1.27,2.12-2.26,2.78-2.98l-0.64,0.52l-0.67,0.6c-4.34,3.78-7.46,6.38-9.37,7.78
			c-1.91,1.4-3.12,1.98-3.65,1.75c-0.08,0-0.15-0.03-0.2-0.08c-0.08-0.08-0.12-0.17-0.12-0.28c0-0.34,1.15-1.8,3.45-4.37
			c1.69-1.85,3.9-4.19,6.63-7.03c-0.66,0.48-1.57,1.23-2.74,2.26c-0.45,0.4-0.94,0.83-1.47,1.31l-0.71,0.6
			c-0.16,0.16-0.36,0.34-0.6,0.56c-1.64,1.46-2.65,2.33-3.02,2.62c-0.34,0.24-0.6,0.29-0.75,0.16c-0.05-0.05-0.08-0.13-0.08-0.24
			c-0.03-0.19,2.26-2.78,6.87-7.78l-7.38,4.21c-0.16,0.11-0.29,0.08-0.4-0.08c-0.11-0.16-0.09-0.29,0.04-0.4
			c2.01-1.98,3.24-3.31,3.69-3.97c-0.26-0.13-0.99-0.42-2.18-0.87c-0.13-0.05-0.22-0.11-0.28-0.16c-0.05-0.05-0.08-0.12-0.08-0.2
			l0.04-0.12l0.08-0.12l0.08-0.08c0.13-0.16,0.28-0.16,0.44,0c0.03,0.03,0.05,0.07,0.08,0.12c1.56,0.63,2.38,0.98,2.46,1.03
			c0.08,0.08,0.12,0.17,0.12,0.28v0.04l-0.04,0.12c-0.05,0.11-0.15,0.24-0.28,0.4c-0.34,0.5-1.02,1.27-2.02,2.3l7.07-4.09
			c0.16-0.08,0.3-0.05,0.44,0.08c0.11,0.16,0.09,0.29-0.04,0.4l-0.67,0.75l-0.67,0.75l-1.47,1.63c-1.16,1.27-2.1,2.29-2.82,3.06
			l0.36-0.32c4.18-3.76,6.6-5.6,7.26-5.52l0.75-0.87c0.13-0.16,0.28-0.17,0.44-0.04l0.08,0.12l0.04,0.16
			c0,0.56-3.37,4.37-10.12,11.43l-0.44,0.44l-0.4,0.44c-0.29,0.29-0.52,0.52-0.67,0.67c0.93-0.37,2.82-1.72,5.68-4.05
			c1.03-0.85,2.18-1.81,3.45-2.9c0.48-0.42,0.98-0.86,1.51-1.31c0.21-0.19,0.44-0.38,0.67-0.6l0.28-0.24l0.28-0.24
			c1.61-1.4,2.57-2.21,2.86-2.42c0.26-0.21,0.48-0.26,0.63-0.16l0.08,0.12l0.04,0.16c0,0.11-0.04,0.22-0.12,0.36
			c1.17-1.09,1.97-1.76,2.42-2.02c0.19-0.11,0.33-0.16,0.44-0.16l0.08,0.04l0.08,0.04c0.08,0.05,0.12,0.12,0.12,0.2
			c0,0.05-0.01,0.12-0.04,0.2c0.24-0.16,0.42-0.24,0.56-0.24c0.08-0.03,0.15-0.03,0.2,0c0.05,0.03,0.09,0.07,0.12,0.12
			c0.08,0.03,0.12,0.09,0.12,0.2c0,0.08-0.03,0.16-0.08,0.24l-12.19,13.5c0.85-0.42,2.53-1.87,5.04-4.33c0.9-0.9,1.93-1.95,3.1-3.14
			c0.45-0.45,0.93-0.94,1.43-1.47l0.67-0.67l0.28-0.32l0.32-0.32c2.14-2.25,3.44-3.57,3.89-3.97c0.42-0.37,0.71-0.48,0.87-0.32
			c0.08,0.05,0.12,0.13,0.12,0.24c0,0.08-0.03,0.16-0.08,0.24c-8.47,8.34-13.24,13.48-14.33,15.44c0.9-0.56,3.04-2.42,6.43-5.6
			c2.81-2.62,5.7-5.43,8.69-8.42c0.16-0.13,0.3-0.13,0.44,0l0.12,0.12c0.03,0.05,0.04,0.12,0.04,0.2c0,0.64-1.69,2.75-5.08,6.35
			c4.98-4.45,7.85-6.95,8.61-7.5l0.08-0.08l0.12-0.12l0.04,0.04c0.16-0.11,0.29-0.12,0.4-0.04c0.05,0.05,0.08,0.13,0.08,0.24
			c-0.03,0.11-0.05,0.18-0.08,0.24c-7.67,7.46-12.03,12.12-13.06,13.97c0.45-0.34,1.26-1.11,2.42-2.3c0.48-0.48,1.03-1.05,1.67-1.71
			c0.42-0.42,1.01-1.02,1.75-1.79c3.76-3.92,6.34-6.48,7.74-7.7c1.54-1.32,2.5-1.8,2.9-1.43c0.16,0.13,0.17,0.28,0.04,0.44
			l-1.83,2.02c0.98-0.95,1.55-1.36,1.71-1.23c0.08,0.05,0.12,0.13,0.12,0.24l1.59-1.63c0.13-0.13,0.28-0.13,0.44,0
			c0.08,0.11,0.12,0.21,0.12,0.32c0,0.56-2.24,3.04-6.71,7.46l-0.83,0.87l-0.91,0.87c-0.66,0.69-1.23,1.26-1.71,1.71
			c-1.22,1.27-2.04,2.17-2.46,2.7c0.61-0.48,1.64-1.44,3.1-2.9c0.56-0.56,1.2-1.22,1.94-1.98l0.99-1.03l0.91-0.95
			c2.99-3.1,4.92-5.03,5.8-5.8c0.77-0.66,1.27-0.89,1.51-0.67c0.05,0.05,0.08,0.12,0.08,0.2c0.03,0.08,0,0.16-0.08,0.24l-5.64,6.27
			c1.03-1.06,2.16-2.18,3.37-3.37c0.42-0.42,0.86-0.86,1.31-1.31c0.16-0.16,0.33-0.33,0.52-0.52l0.2-0.2l0.2-0.16
			c0.13-0.16,0.28-0.16,0.44,0c0.16,0.16,0.16,0.3,0,0.44c-2.94,2.99-5.62,5.72-8.06,8.18c-1.75,1.88-2.82,3.15-3.22,3.81
			c0.93-0.66,3.02-2.57,6.27-5.72c2.65-2.57,5.43-5.33,8.34-8.3c0.13-0.13,0.28-0.13,0.44,0c0.08,0.05,0.12,0.13,0.12,0.24
			c0,0.13-0.07,0.28-0.2,0.44l0.04,0.04l0.04,0.08c0.53-0.45,0.93-0.69,1.19-0.71c0.08,0,0.15,0.01,0.2,0.04l0.16,0.08
			c0.05,0.05,0.09,0.11,0.12,0.16c0.05,0.11,0.08,0.21,0.08,0.32c0,0.61-0.9,1.92-2.7,3.93c2.22-1.96,3.76-3.22,4.6-3.77
			c0.34-0.21,0.58-0.33,0.71-0.36c0.08,0,0.13,0.01,0.16,0.04l0.08,0.04c0.11,0.08,0.16,0.18,0.16,0.32c0,0.42-0.85,1.61-2.54,3.57
			c2.94-2.54,4.66-3.6,5.16-3.18c0.05,0.08,0.08,0.16,0.08,0.24c0,0.29-2.21,2.79-6.63,7.5l-0.87,0.91l-0.87,0.95
			c2.96-3.02,6.14-6.29,9.53-9.81c0.16-0.16,0.3-0.17,0.44-0.04l0.08,0.16l0.08,0.16c0,0.42-1.89,2.5-5.68,6.23
			c-0.64,0.64-1.16,1.16-1.59,1.59c-0.61,0.61-1.15,1.15-1.63,1.63c-1.19,1.22-2.02,2.12-2.5,2.7c0.74-0.53,1.96-1.43,3.65-2.7
			c1.11-0.85,2.66-2.02,4.64-3.53c4.55-3.44,7.07-5.29,7.54-5.56l0.04-0.04c0.19-0.11,0.33-0.12,0.44-0.04
			c0.08,0.08,0.12,0.16,0.12,0.24c0,0.08-0.03,0.16-0.08,0.24l-8.77,9.73l0.99-0.99l1.03-0.99c4.31-4.21,7.32-7.01,9.01-8.42
			c1.96-1.61,3.16-2.22,3.61-1.83C609.38,99.76,609.42,99.84,609.45,99.92z M579.28,111.23c1.24-1.35,2.82-3.07,4.72-5.16
			c-0.95,0.93-1.75,1.71-2.38,2.34c-0.95,0.95-1.79,1.8-2.5,2.54c-1.85,1.91-2.95,3.18-3.29,3.81
			C576.41,114.24,577.56,113.06,579.28,111.23z M589.12,101.91c-0.64,1.16-2.78,3.59-6.43,7.26c-0.4,0.48-0.83,0.98-1.31,1.51
			c-0.29,0.37-0.67,0.82-1.15,1.35c6.77-6.59,10.16-10.32,10.16-11.19C590.18,100.91,589.76,101.27,589.12,101.91z"/>
	</g>
	<g>
		<path class="st1" d="M541.36,99.92c0,0.11-0.04,0.19-0.12,0.24c-7.78,7.62-12.48,12.62-14.09,15.01l16.87-12.5
			c0.13-0.11,0.27-0.11,0.4,0l0.08,0.12l0.04,0.16c0,0.32-1.59,2.08-4.76,5.28l-0.79,0.79l-0.83,0.83
			c-0.61,0.66-1.15,1.23-1.63,1.71c-1.19,1.24-1.98,2.13-2.38,2.66c0.56-0.37,1.5-1.15,2.82-2.34c0.5-0.45,1.09-0.98,1.75-1.59
			l0.83-0.79l0.44-0.36l0.36-0.4c2.12-1.96,3.43-3.12,3.93-3.49c0.45-0.34,0.77-0.44,0.95-0.28c0.05,0.05,0.08,0.12,0.08,0.2
			c0.03,0.08,0,0.16-0.08,0.24c-1.03,1.06-2.05,2.13-3.06,3.22c0.98-0.85,1.68-1.35,2.1-1.51c0.16-0.08,0.29-0.11,0.4-0.08
			l0.08,0.04l0.08,0.08l0.12,0.16c0.05,0.08,0.07,0.13,0.04,0.16c0,0.18-0.13,0.48-0.4,0.87l0.04,0.04v0.04l-0.04,0.12l-0.04,0.12
			c-0.66,0.69-1.23,1.28-1.71,1.79l-0.56,0.56c-0.98,1.03-1.73,1.87-2.26,2.5c3.52-1.72,5.37-2.5,5.56-2.34
			c0.08,0.08,0.12,0.16,0.12,0.24c0,0.08-0.03,0.16-0.08,0.24c-0.32,0.34-0.75,0.82-1.31,1.43l-0.32,0.36l-0.28,0.32
			c-0.24,0.26-0.41,0.45-0.52,0.56l1.79,0.32c0.18,0.05,0.28,0.16,0.28,0.32c-0.03,0.13-0.13,0.29-0.32,0.48
			c-0.13,0.13-0.28,0.13-0.44,0c-0.08-0.08-0.11-0.16-0.08-0.24l-1.91-0.36c-0.05,0-0.11-0.03-0.16-0.08
			c-0.11-0.11-0.08-0.26,0.08-0.48c0.19-0.24,0.78-0.93,1.79-2.06c-0.61,0.29-1.43,0.69-2.46,1.19c-0.85,0.4-1.72,0.81-2.62,1.23
			c-0.13,0.05-0.25,0.04-0.36-0.04l-0.04-0.08l-0.36,0.36l-0.32,0.28c-0.16,0.13-0.29,0.12-0.4-0.04c-0.16-0.11-0.17-0.24-0.04-0.4
			c0.48-0.58,0.97-1.15,1.47-1.71c0.63-0.74,1.23-1.42,1.79-2.02c1.51-1.59,2.53-2.51,3.06-2.78l0.16-0.2l0.12-0.16
			c-0.19,0.11-0.42,0.28-0.71,0.52c-0.37,0.26-0.79,0.62-1.27,1.07c-1.27,1.14-2.92,2.75-4.96,4.84c-0.19,0.18-0.33,0.28-0.44,0.28
			c-0.08,0-0.15-0.03-0.2-0.08c-0.08-0.05-0.12-0.13-0.12-0.24v-0.08c0.03-0.03,0.05-0.07,0.08-0.12c0.05-0.13,0.19-0.33,0.4-0.6
			c0.61-0.77,1.76-2.08,3.45-3.93c-2.67,2.51-4.47,4.11-5.4,4.8c-0.9,0.69-1.48,0.93-1.75,0.71l-0.08-0.16l-0.04-0.16
			c0-0.48,2.05-2.78,6.15-6.91c1.35-1.38,2.36-2.42,3.02-3.14l-15.64,11.63c-0.13,0.11-0.26,0.11-0.4,0l-0.08-0.16
			c-0.05-0.05-0.08-0.12-0.08-0.2c0-0.71,1.85-3.04,5.56-6.99c1.32-1.4,2.86-2.99,4.6-4.76c0.66-0.66,1.34-1.35,2.02-2.06
			c0.56-0.53,1.1-1.06,1.63-1.59c-0.95,0.61-2.65,2.04-5.08,4.29c-0.9,0.82-1.93,1.8-3.1,2.94c-0.42,0.4-0.9,0.86-1.43,1.39
			l-0.67,0.64l-0.64,0.6c-2.78,2.73-4.5,4.35-5.16,4.88c-0.58,0.5-0.97,0.66-1.15,0.48c-0.08-0.05-0.12-0.13-0.12-0.24v-0.12
			l0.08-0.08l10.24-11.39c-1.46,1.08-3.2,2.41-5.24,3.97c-4.66,3.55-7.41,5.61-8.26,6.19c-0.79,0.58-1.27,0.81-1.43,0.67
			c-0.08-0.08-0.12-0.19-0.12-0.32c-0.03-0.05-0.03-0.12,0-0.2c-1.69,1.64-2.65,2.37-2.86,2.18c-0.08-0.05-0.12-0.13-0.12-0.24
			c0-0.29,2.22-2.79,6.67-7.5c0.77-0.82,1.36-1.46,1.79-1.91c0.66-0.74,1.24-1.38,1.75-1.91c1.27-1.35,2.13-2.29,2.58-2.82
			c-1.64,0.85-5.5,4.25-11.59,10.2c-1.67,1.69-2.78,2.82-3.33,3.37c-0.16,0.13-0.32,0.13-0.48,0c-0.13-0.16-0.13-0.3,0-0.44
			c0.87-0.9,2.09-2.13,3.65-3.69c5.16-5.21,8.2-8.55,9.13-10c-1.03,0.71-3.29,2.66-6.79,5.84c-2.83,2.57-5.84,5.36-9.01,8.38
			c-0.08,0.11-0.18,0.13-0.32,0.08c-0.08-0.03-0.15-0.08-0.2-0.16c-0.53,0.45-0.93,0.69-1.19,0.71c-0.08,0-0.15-0.01-0.2-0.04
			l-0.16-0.08c-0.08-0.05-0.12-0.13-0.12-0.24c0-0.08,0.05-0.19,0.16-0.32l-0.08-0.04c-0.05-0.03-0.09-0.08-0.12-0.16
			c-0.03-0.05-0.04-0.13-0.04-0.24c0.03-0.4,0.38-1.03,1.07-1.91c-0.98,0.82-1.67,1.34-2.06,1.55c-0.16,0.08-0.28,0.12-0.36,0.12
			l-0.12-0.04l-0.04-0.04l-0.12-0.16c-0.03-0.05-0.04-0.12-0.04-0.2c0-0.11,0.04-0.25,0.12-0.44c-0.64,0.61-1.1,1.02-1.39,1.23
			l-0.12,0.16l-0.04-0.04c-0.19,0.13-0.32,0.15-0.4,0.04c-0.05-0.05-0.09-0.12-0.12-0.2c-0.03-0.08,0-0.16,0.08-0.24l9.09-10.08
			c-0.74,0.74-1.53,1.56-2.38,2.46c-3.25,3.36-5.37,5.49-6.35,6.39c-1.01,0.87-1.65,1.19-1.94,0.95c-0.08-0.08-0.12-0.17-0.12-0.28
			l-1.11,1.15c-0.13,0.16-0.28,0.17-0.44,0.04c-0.05-0.05-0.09-0.11-0.12-0.16c-0.03-0.08-0.04-0.16-0.04-0.24v-0.08l-0.32,0.32
			l-0.32,0.32c-0.13,0.16-0.28,0.16-0.44,0c-0.16-0.13-0.16-0.28,0-0.44l13.02-14.45c-0.85,0.58-2.24,1.84-4.17,3.77
			c-0.71,0.71-1.55,1.56-2.5,2.54c-0.37,0.34-0.78,0.75-1.23,1.23l-0.56,0.6l-0.52,0.56c-2.8,2.91-4.6,4.71-5.4,5.4
			c-0.79,0.69-1.31,0.93-1.55,0.71l-0.12-0.12c-0.03-0.08-0.04-0.16-0.04-0.24c0-0.45,0.73-1.52,2.18-3.22
			c1.14-1.35,2.73-3.07,4.76-5.16c-2.8,2.49-6.07,5.41-9.8,8.77c-0.16,0.16-0.3,0.16-0.44,0c-0.16-0.16-0.16-0.3,0-0.44
			c5.27-5.16,8.97-9.04,11.12-11.63c-5.82,5.77-9.9,9.57-12.23,11.39c-0.85,0.66-1.46,1.06-1.83,1.19
			c-0.13,0.05-0.24,0.07-0.32,0.04h-0.08l-0.04-0.08l-0.12-0.12c-0.03-0.05-0.04-0.12-0.04-0.2c0-0.37,0.57-1.23,1.71-2.58
			c-1.64,1.38-2.7,1.85-3.18,1.43c-0.16-0.13-0.16-0.28,0-0.44l10.8-12.03c-1.06,1.01-2.42,2.4-4.09,4.17l-8.65,9.61
			c-0.13,0.16-0.28,0.17-0.44,0.04c-0.18-0.16-0.2-0.3-0.04-0.44c0.4-0.48,0.86-1.01,1.39-1.59c0.69-0.79,1.39-1.59,2.1-2.38
			c1.96-2.2,3.72-4.12,5.28-5.76l2.14-2.42c-1.48,1.46-3.35,3.35-5.6,5.68c-1.88,1.93-3.78,3.93-5.72,5.99
			c-0.16,0.13-0.3,0.13-0.44,0c-0.08-0.05-0.12-0.13-0.12-0.24c0-0.26,1.64-2.09,4.92-5.48l0.71-0.75l0.75-0.75
			c0.58-0.61,1.1-1.15,1.55-1.63c1.19-1.27,2.12-2.26,2.78-2.98l-0.64,0.52l-0.67,0.6c-4.34,3.78-7.46,6.38-9.37,7.78
			c-1.91,1.4-3.12,1.98-3.65,1.75c-0.08,0-0.15-0.03-0.2-0.08c-0.08-0.08-0.12-0.17-0.12-0.28c0-0.34,1.15-1.8,3.45-4.37
			c1.69-1.85,3.9-4.19,6.63-7.03c-0.66,0.48-1.57,1.23-2.74,2.26c-0.45,0.4-0.94,0.83-1.47,1.31l-0.71,0.6
			c-0.16,0.16-0.36,0.34-0.6,0.56c-1.64,1.46-2.65,2.33-3.02,2.62c-0.34,0.24-0.6,0.29-0.75,0.16c-0.05-0.05-0.08-0.13-0.08-0.24
			c-0.03-0.19,2.26-2.78,6.87-7.78l-7.38,4.21c-0.16,0.11-0.29,0.08-0.4-0.08c-0.11-0.16-0.09-0.29,0.04-0.4
			c2.01-1.98,3.24-3.31,3.69-3.97c-0.26-0.13-0.99-0.42-2.18-0.87c-0.13-0.05-0.22-0.11-0.28-0.16c-0.05-0.05-0.08-0.12-0.08-0.2
			l0.04-0.12l0.08-0.12l0.08-0.08c0.13-0.16,0.28-0.16,0.44,0c0.03,0.03,0.05,0.07,0.08,0.12c1.56,0.63,2.38,0.98,2.46,1.03
			c0.08,0.08,0.12,0.17,0.12,0.28v0.04l-0.04,0.12c-0.05,0.11-0.15,0.24-0.28,0.4c-0.34,0.5-1.02,1.27-2.02,2.3l7.07-4.09
			c0.16-0.08,0.3-0.05,0.44,0.08c0.11,0.16,0.09,0.29-0.04,0.4l-0.67,0.75l-0.67,0.75l-1.47,1.63c-1.16,1.27-2.1,2.29-2.82,3.06
			l0.36-0.32c4.18-3.76,6.6-5.6,7.26-5.52l0.75-0.87c0.13-0.16,0.28-0.17,0.44-0.04l0.08,0.12l0.04,0.16
			c0,0.56-3.37,4.37-10.12,11.43l-0.44,0.44l-0.4,0.44c-0.29,0.29-0.52,0.52-0.67,0.67c0.93-0.37,2.82-1.72,5.68-4.05
			c1.03-0.85,2.18-1.81,3.45-2.9c0.48-0.42,0.98-0.86,1.51-1.31c0.21-0.19,0.44-0.38,0.67-0.6l0.28-0.24l0.28-0.24
			c1.61-1.4,2.57-2.21,2.86-2.42c0.26-0.21,0.48-0.26,0.63-0.16l0.08,0.12l0.04,0.16c0,0.11-0.04,0.22-0.12,0.36
			c1.17-1.09,1.97-1.76,2.42-2.02c0.19-0.11,0.33-0.16,0.44-0.16l0.08,0.04l0.08,0.04c0.08,0.05,0.12,0.12,0.12,0.2
			c0,0.05-0.01,0.12-0.04,0.2c0.24-0.16,0.42-0.24,0.56-0.24c0.08-0.03,0.15-0.03,0.2,0c0.05,0.03,0.09,0.07,0.12,0.12
			c0.08,0.03,0.12,0.09,0.12,0.2c0,0.08-0.03,0.16-0.08,0.24l-12.19,13.5c0.85-0.42,2.53-1.87,5.04-4.33c0.9-0.9,1.93-1.95,3.1-3.14
			c0.45-0.45,0.93-0.94,1.43-1.47l0.67-0.67l0.28-0.32l0.32-0.32c2.14-2.25,3.44-3.57,3.89-3.97c0.42-0.37,0.71-0.48,0.87-0.32
			c0.08,0.05,0.12,0.13,0.12,0.24c0,0.08-0.03,0.16-0.08,0.24c-8.47,8.34-13.24,13.48-14.33,15.44c0.9-0.56,3.04-2.42,6.43-5.6
			c2.81-2.62,5.7-5.43,8.69-8.42c0.16-0.13,0.3-0.13,0.44,0l0.12,0.12c0.03,0.05,0.04,0.12,0.04,0.2c0,0.64-1.69,2.75-5.08,6.35
			c4.98-4.45,7.85-6.95,8.61-7.5l0.08-0.08l0.12-0.12l0.04,0.04c0.16-0.11,0.29-0.12,0.4-0.04c0.05,0.05,0.08,0.13,0.08,0.24
			c-0.03,0.11-0.05,0.18-0.08,0.24c-7.67,7.46-12.03,12.12-13.06,13.97c0.45-0.34,1.26-1.11,2.42-2.3c0.48-0.48,1.03-1.05,1.67-1.71
			c0.42-0.42,1.01-1.02,1.75-1.79c3.76-3.92,6.34-6.48,7.74-7.7c1.54-1.32,2.5-1.8,2.9-1.43c0.16,0.13,0.17,0.28,0.04,0.44
			l-1.83,2.02c0.98-0.95,1.55-1.36,1.71-1.23c0.08,0.05,0.12,0.13,0.12,0.24l1.59-1.63c0.13-0.13,0.28-0.13,0.44,0
			c0.08,0.11,0.12,0.21,0.12,0.32c0,0.56-2.24,3.04-6.71,7.46l-0.83,0.87l-0.91,0.87c-0.66,0.69-1.23,1.26-1.71,1.71
			c-1.22,1.27-2.04,2.17-2.46,2.7c0.61-0.48,1.64-1.44,3.1-2.9c0.56-0.56,1.2-1.22,1.94-1.98l0.99-1.03l0.91-0.95
			c2.99-3.1,4.92-5.03,5.8-5.8c0.77-0.66,1.27-0.89,1.51-0.67c0.05,0.05,0.08,0.12,0.08,0.2c0.03,0.08,0,0.16-0.08,0.24l-5.64,6.27
			c1.03-1.06,2.16-2.18,3.37-3.37c0.42-0.42,0.86-0.86,1.31-1.31c0.16-0.16,0.33-0.33,0.52-0.52l0.2-0.2l0.2-0.16
			c0.13-0.16,0.28-0.16,0.44,0c0.16,0.16,0.16,0.3,0,0.44c-2.94,2.99-5.62,5.72-8.06,8.18c-1.75,1.88-2.82,3.15-3.22,3.81
			c0.93-0.66,3.02-2.57,6.27-5.72c2.65-2.57,5.43-5.33,8.34-8.3c0.13-0.13,0.28-0.13,0.44,0c0.08,0.05,0.12,0.13,0.12,0.24
			c0,0.13-0.07,0.28-0.2,0.44l0.04,0.04l0.04,0.08c0.53-0.45,0.93-0.69,1.19-0.71c0.08,0,0.15,0.01,0.2,0.04l0.16,0.08
			c0.05,0.05,0.09,0.11,0.12,0.16c0.05,0.11,0.08,0.21,0.08,0.32c0,0.61-0.9,1.92-2.7,3.93c2.22-1.96,3.76-3.22,4.6-3.77
			c0.34-0.21,0.58-0.33,0.71-0.36c0.08,0,0.13,0.01,0.16,0.04l0.08,0.04c0.11,0.08,0.16,0.18,0.16,0.32c0,0.42-0.85,1.61-2.54,3.57
			c2.94-2.54,4.66-3.6,5.16-3.18c0.05,0.08,0.08,0.16,0.08,0.24c0,0.29-2.21,2.79-6.63,7.5l-0.87,0.91l-0.87,0.95
			c2.96-3.02,6.14-6.29,9.53-9.81c0.16-0.16,0.3-0.17,0.44-0.04l0.08,0.16l0.08,0.16c0,0.42-1.89,2.5-5.68,6.23
			c-0.64,0.64-1.16,1.16-1.59,1.59c-0.61,0.61-1.15,1.15-1.63,1.63c-1.19,1.22-2.02,2.12-2.5,2.7c0.74-0.53,1.96-1.43,3.65-2.7
			c1.11-0.85,2.66-2.02,4.64-3.53c4.55-3.44,7.07-5.29,7.54-5.56l0.04-0.04c0.19-0.11,0.33-0.12,0.44-0.04
			c0.08,0.08,0.12,0.16,0.12,0.24c0,0.08-0.03,0.16-0.08,0.24l-8.77,9.73l0.99-0.99l1.03-0.99c4.31-4.21,7.32-7.01,9.01-8.42
			c1.96-1.61,3.16-2.22,3.61-1.83C541.3,99.76,541.34,99.84,541.36,99.92z M511.19,111.23c1.24-1.35,2.82-3.07,4.72-5.16
			c-0.95,0.93-1.75,1.71-2.38,2.34c-0.95,0.95-1.79,1.8-2.5,2.54c-1.85,1.91-2.95,3.18-3.29,3.81
			C508.32,114.24,509.47,113.06,511.19,111.23z M521.04,101.91c-0.64,1.16-2.78,3.59-6.43,7.26c-0.4,0.48-0.83,0.98-1.31,1.51
			c-0.29,0.37-0.67,0.82-1.15,1.35c6.77-6.59,10.16-10.32,10.16-11.19C522.1,100.91,521.67,101.27,521.04,101.91z"/>
	</g>
	<g>
		<path class="st0" d="M472.26,99.92c0,0.11-0.04,0.19-0.12,0.24c-7.78,7.62-12.48,12.62-14.09,15.01l16.87-12.5
			c0.13-0.11,0.27-0.11,0.4,0l0.08,0.12l0.04,0.16c0,0.32-1.59,2.08-4.76,5.28l-0.79,0.79l-0.83,0.83
			c-0.61,0.66-1.15,1.23-1.63,1.71c-1.19,1.24-1.98,2.13-2.38,2.66c0.56-0.37,1.5-1.15,2.82-2.34c0.5-0.45,1.09-0.98,1.75-1.59
			l0.83-0.79l0.44-0.36l0.36-0.4c2.12-1.96,3.43-3.12,3.93-3.49c0.45-0.34,0.77-0.44,0.95-0.28c0.05,0.05,0.08,0.12,0.08,0.2
			c0.03,0.08,0,0.16-0.08,0.24c-1.03,1.06-2.05,2.13-3.06,3.22c0.98-0.85,1.68-1.35,2.1-1.51c0.16-0.08,0.29-0.11,0.4-0.08
			l0.08,0.04l0.08,0.08l0.12,0.16c0.05,0.08,0.07,0.13,0.04,0.16c0,0.18-0.13,0.48-0.4,0.87l0.04,0.04v0.04l-0.04,0.12l-0.04,0.12
			c-0.66,0.69-1.23,1.28-1.71,1.79l-0.56,0.56c-0.98,1.03-1.73,1.87-2.26,2.5c3.52-1.72,5.37-2.5,5.56-2.34
			c0.08,0.08,0.12,0.16,0.12,0.24c0,0.08-0.03,0.16-0.08,0.24c-0.32,0.34-0.75,0.82-1.31,1.43l-0.32,0.36l-0.28,0.32
			c-0.24,0.26-0.41,0.45-0.52,0.56l1.79,0.32c0.18,0.05,0.28,0.16,0.28,0.32c-0.03,0.13-0.13,0.29-0.32,0.48
			c-0.13,0.13-0.28,0.13-0.44,0c-0.08-0.08-0.11-0.16-0.08-0.24l-1.91-0.36c-0.05,0-0.11-0.03-0.16-0.08
			c-0.11-0.11-0.08-0.26,0.08-0.48c0.19-0.24,0.78-0.93,1.79-2.06c-0.61,0.29-1.43,0.69-2.46,1.19c-0.85,0.4-1.72,0.81-2.62,1.23
			c-0.13,0.05-0.25,0.04-0.36-0.04l-0.04-0.08l-0.36,0.36l-0.32,0.28c-0.16,0.13-0.29,0.12-0.4-0.04c-0.16-0.11-0.17-0.24-0.04-0.4
			c0.48-0.58,0.97-1.15,1.47-1.71c0.63-0.74,1.23-1.42,1.79-2.02c1.51-1.59,2.53-2.51,3.06-2.78l0.16-0.2l0.12-0.16
			c-0.19,0.11-0.42,0.28-0.71,0.52c-0.37,0.26-0.79,0.62-1.27,1.07c-1.27,1.14-2.92,2.75-4.96,4.84c-0.19,0.18-0.33,0.28-0.44,0.28
			c-0.08,0-0.15-0.03-0.2-0.08c-0.08-0.05-0.12-0.13-0.12-0.24v-0.08c0.03-0.03,0.05-0.07,0.08-0.12c0.05-0.13,0.19-0.33,0.4-0.6
			c0.61-0.77,1.76-2.08,3.45-3.93c-2.67,2.51-4.47,4.11-5.4,4.8c-0.9,0.69-1.48,0.93-1.75,0.71l-0.08-0.16l-0.04-0.16
			c0-0.48,2.05-2.78,6.15-6.91c1.35-1.38,2.36-2.42,3.02-3.14l-15.64,11.63c-0.13,0.11-0.26,0.11-0.4,0l-0.08-0.16
			c-0.05-0.05-0.08-0.12-0.08-0.2c0-0.71,1.85-3.04,5.56-6.99c1.32-1.4,2.86-2.99,4.6-4.76c0.66-0.66,1.34-1.35,2.02-2.06
			c0.56-0.53,1.1-1.06,1.63-1.59c-0.95,0.61-2.65,2.04-5.08,4.29c-0.9,0.82-1.93,1.8-3.1,2.94c-0.42,0.4-0.9,0.86-1.43,1.39
			l-0.67,0.64l-0.64,0.6c-2.78,2.73-4.5,4.35-5.16,4.88c-0.58,0.5-0.97,0.66-1.15,0.48c-0.08-0.05-0.12-0.13-0.12-0.24v-0.12
			l0.08-0.08l10.24-11.39c-1.46,1.08-3.2,2.41-5.24,3.97c-4.66,3.55-7.41,5.61-8.26,6.19c-0.79,0.58-1.27,0.81-1.43,0.67
			c-0.08-0.08-0.12-0.19-0.12-0.32c-0.03-0.05-0.03-0.12,0-0.2c-1.69,1.64-2.65,2.37-2.86,2.18c-0.08-0.05-0.12-0.13-0.12-0.24
			c0-0.29,2.22-2.79,6.67-7.5c0.77-0.82,1.36-1.46,1.79-1.91c0.66-0.74,1.24-1.38,1.75-1.91c1.27-1.35,2.13-2.29,2.58-2.82
			c-1.64,0.85-5.5,4.25-11.59,10.2c-1.67,1.69-2.78,2.82-3.33,3.37c-0.16,0.13-0.32,0.13-0.48,0c-0.13-0.16-0.13-0.3,0-0.44
			c0.87-0.9,2.09-2.13,3.65-3.69c5.16-5.21,8.2-8.55,9.13-10c-1.03,0.71-3.29,2.66-6.79,5.84c-2.83,2.57-5.84,5.36-9.01,8.38
			c-0.08,0.11-0.18,0.13-0.32,0.08c-0.08-0.03-0.15-0.08-0.2-0.16c-0.53,0.45-0.93,0.69-1.19,0.71c-0.08,0-0.15-0.01-0.2-0.04
			l-0.16-0.08c-0.08-0.05-0.12-0.13-0.12-0.24c0-0.08,0.05-0.19,0.16-0.32l-0.08-0.04c-0.05-0.03-0.09-0.08-0.12-0.16
			c-0.03-0.05-0.04-0.13-0.04-0.24c0.03-0.4,0.38-1.03,1.07-1.91c-0.98,0.82-1.67,1.34-2.06,1.55c-0.16,0.08-0.28,0.12-0.36,0.12
			l-0.12-0.04l-0.04-0.04l-0.12-0.16c-0.03-0.05-0.04-0.12-0.04-0.2c0-0.11,0.04-0.25,0.12-0.44c-0.64,0.61-1.1,1.02-1.39,1.23
			l-0.12,0.16l-0.04-0.04c-0.19,0.13-0.32,0.15-0.4,0.04c-0.05-0.05-0.09-0.12-0.12-0.2c-0.03-0.08,0-0.16,0.08-0.24l9.09-10.08
			c-0.74,0.74-1.53,1.56-2.38,2.46c-3.25,3.36-5.37,5.49-6.35,6.39c-1.01,0.87-1.65,1.19-1.94,0.95c-0.08-0.08-0.12-0.17-0.12-0.28
			l-1.11,1.15c-0.13,0.16-0.28,0.17-0.44,0.04c-0.05-0.05-0.09-0.11-0.12-0.16c-0.03-0.08-0.04-0.16-0.04-0.24v-0.08l-0.32,0.32
			l-0.32,0.32c-0.13,0.16-0.28,0.16-0.44,0c-0.16-0.13-0.16-0.28,0-0.44l13.02-14.45c-0.85,0.58-2.24,1.84-4.17,3.77
			c-0.71,0.71-1.55,1.56-2.5,2.54c-0.37,0.34-0.78,0.75-1.23,1.23l-0.56,0.6l-0.52,0.56c-2.8,2.91-4.6,4.71-5.4,5.4
			c-0.79,0.69-1.31,0.93-1.55,0.71l-0.12-0.12c-0.03-0.08-0.04-0.16-0.04-0.24c0-0.45,0.73-1.52,2.18-3.22
			c1.14-1.35,2.73-3.07,4.76-5.16c-2.8,2.49-6.07,5.41-9.8,8.77c-0.16,0.16-0.3,0.16-0.44,0c-0.16-0.16-0.16-0.3,0-0.44
			c5.27-5.16,8.97-9.04,11.12-11.63c-5.82,5.77-9.9,9.57-12.23,11.39c-0.85,0.66-1.46,1.06-1.83,1.19
			c-0.13,0.05-0.24,0.07-0.32,0.04h-0.08l-0.04-0.08l-0.12-0.12c-0.03-0.05-0.04-0.12-0.04-0.2c0-0.37,0.57-1.23,1.71-2.58
			c-1.64,1.38-2.7,1.85-3.18,1.43c-0.16-0.13-0.16-0.28,0-0.44l10.8-12.03c-1.06,1.01-2.42,2.4-4.09,4.17l-8.65,9.61
			c-0.13,0.16-0.28,0.17-0.44,0.04c-0.18-0.16-0.2-0.3-0.04-0.44c0.4-0.48,0.86-1.01,1.39-1.59c0.69-0.79,1.39-1.59,2.1-2.38
			c1.96-2.2,3.72-4.12,5.28-5.76l2.14-2.42c-1.48,1.46-3.35,3.35-5.6,5.68c-1.88,1.93-3.78,3.93-5.72,5.99
			c-0.16,0.13-0.3,0.13-0.44,0c-0.08-0.05-0.12-0.13-0.12-0.24c0-0.26,1.64-2.09,4.92-5.48l0.71-0.75l0.75-0.75
			c0.58-0.61,1.1-1.15,1.55-1.63c1.19-1.27,2.12-2.26,2.78-2.98l-0.64,0.52l-0.67,0.6c-4.34,3.78-7.46,6.38-9.37,7.78
			c-1.91,1.4-3.12,1.98-3.65,1.75c-0.08,0-0.15-0.03-0.2-0.08c-0.08-0.08-0.12-0.17-0.12-0.28c0-0.34,1.15-1.8,3.45-4.37
			c1.69-1.85,3.9-4.19,6.63-7.03c-0.66,0.48-1.57,1.23-2.74,2.26c-0.45,0.4-0.94,0.83-1.47,1.31l-0.71,0.6
			c-0.16,0.16-0.36,0.34-0.6,0.56c-1.64,1.46-2.65,2.33-3.02,2.62c-0.34,0.24-0.6,0.29-0.75,0.16c-0.05-0.05-0.08-0.13-0.08-0.24
			c-0.03-0.19,2.26-2.78,6.87-7.78l-7.38,4.21c-0.16,0.11-0.29,0.08-0.4-0.08c-0.11-0.16-0.09-0.29,0.04-0.4
			c2.01-1.98,3.24-3.31,3.69-3.97c-0.26-0.13-0.99-0.42-2.18-0.87c-0.13-0.05-0.22-0.11-0.28-0.16c-0.05-0.05-0.08-0.12-0.08-0.2
			l0.04-0.12l0.08-0.12l0.08-0.08c0.13-0.16,0.28-0.16,0.44,0c0.03,0.03,0.05,0.07,0.08,0.12c1.56,0.63,2.38,0.98,2.46,1.03
			c0.08,0.08,0.12,0.17,0.12,0.28v0.04l-0.04,0.12c-0.05,0.11-0.15,0.24-0.28,0.4c-0.34,0.5-1.02,1.27-2.02,2.3l7.07-4.09
			c0.16-0.08,0.3-0.05,0.44,0.08c0.11,0.16,0.09,0.29-0.04,0.4l-0.67,0.75l-0.67,0.75l-1.47,1.63c-1.16,1.27-2.1,2.29-2.82,3.06
			l0.36-0.32c4.18-3.76,6.6-5.6,7.26-5.52l0.75-0.87c0.13-0.16,0.28-0.17,0.44-0.04l0.08,0.12l0.04,0.16
			c0,0.56-3.37,4.37-10.12,11.43l-0.44,0.44l-0.4,0.44c-0.29,0.29-0.52,0.52-0.67,0.67c0.93-0.37,2.82-1.72,5.68-4.05
			c1.03-0.85,2.18-1.81,3.45-2.9c0.48-0.42,0.98-0.86,1.51-1.31c0.21-0.19,0.44-0.38,0.67-0.6l0.28-0.24l0.28-0.24
			c1.61-1.4,2.57-2.21,2.86-2.42c0.26-0.21,0.48-0.26,0.63-0.16l0.08,0.12l0.04,0.16c0,0.11-0.04,0.22-0.12,0.36
			c1.17-1.09,1.97-1.76,2.42-2.02c0.19-0.11,0.33-0.16,0.44-0.16l0.08,0.04l0.08,0.04c0.08,0.05,0.12,0.12,0.12,0.2
			c0,0.05-0.01,0.12-0.04,0.2c0.24-0.16,0.42-0.24,0.56-0.24c0.08-0.03,0.15-0.03,0.2,0c0.05,0.03,0.09,0.07,0.12,0.12
			c0.08,0.03,0.12,0.09,0.12,0.2c0,0.08-0.03,0.16-0.08,0.24l-12.19,13.5c0.85-0.42,2.53-1.87,5.04-4.33c0.9-0.9,1.93-1.95,3.1-3.14
			c0.45-0.45,0.93-0.94,1.43-1.47l0.67-0.67l0.28-0.32l0.32-0.32c2.14-2.25,3.44-3.57,3.89-3.97c0.42-0.37,0.71-0.48,0.87-0.32
			c0.08,0.05,0.12,0.13,0.12,0.24c0,0.08-0.03,0.16-0.08,0.24c-8.47,8.34-13.24,13.48-14.33,15.44c0.9-0.56,3.04-2.42,6.43-5.6
			c2.81-2.62,5.7-5.43,8.69-8.42c0.16-0.13,0.3-0.13,0.44,0l0.12,0.12c0.03,0.05,0.04,0.12,0.04,0.2c0,0.64-1.69,2.75-5.08,6.35
			c4.98-4.45,7.85-6.95,8.61-7.5l0.08-0.08l0.12-0.12l0.04,0.04c0.16-0.11,0.29-0.12,0.4-0.04c0.05,0.05,0.08,0.13,0.08,0.24
			c-0.03,0.11-0.05,0.18-0.08,0.24c-7.67,7.46-12.03,12.12-13.06,13.97c0.45-0.34,1.26-1.11,2.42-2.3c0.48-0.48,1.03-1.05,1.67-1.71
			c0.42-0.42,1.01-1.02,1.75-1.79c3.76-3.92,6.34-6.48,7.74-7.7c1.54-1.32,2.5-1.8,2.9-1.43c0.16,0.13,0.17,0.28,0.04,0.44
			l-1.83,2.02c0.98-0.95,1.55-1.36,1.71-1.23c0.08,0.05,0.12,0.13,0.12,0.24l1.59-1.63c0.13-0.13,0.28-0.13,0.44,0
			c0.08,0.11,0.12,0.21,0.12,0.32c0,0.56-2.24,3.04-6.71,7.46l-0.83,0.87l-0.91,0.87c-0.66,0.69-1.23,1.26-1.71,1.71
			c-1.22,1.27-2.04,2.17-2.46,2.7c0.61-0.48,1.64-1.44,3.1-2.9c0.56-0.56,1.2-1.22,1.94-1.98l0.99-1.03l0.91-0.95
			c2.99-3.1,4.92-5.03,5.8-5.8c0.77-0.66,1.27-0.89,1.51-0.67c0.05,0.05,0.08,0.12,0.08,0.2c0.03,0.08,0,0.16-0.08,0.24l-5.64,6.27
			c1.03-1.06,2.16-2.18,3.37-3.37c0.42-0.42,0.86-0.86,1.31-1.31c0.16-0.16,0.33-0.33,0.52-0.52l0.2-0.2l0.2-0.16
			c0.13-0.16,0.28-0.16,0.44,0c0.16,0.16,0.16,0.3,0,0.44c-2.94,2.99-5.62,5.72-8.06,8.18c-1.75,1.88-2.82,3.15-3.22,3.81
			c0.93-0.66,3.02-2.57,6.27-5.72c2.65-2.57,5.43-5.33,8.34-8.3c0.13-0.13,0.28-0.13,0.44,0c0.08,0.05,0.12,0.13,0.12,0.24
			c0,0.13-0.07,0.28-0.2,0.44l0.04,0.04l0.04,0.08c0.53-0.45,0.93-0.69,1.19-0.71c0.08,0,0.15,0.01,0.2,0.04l0.16,0.08
			c0.05,0.05,0.09,0.11,0.12,0.16c0.05,0.11,0.08,0.21,0.08,0.32c0,0.61-0.9,1.92-2.7,3.93c2.22-1.96,3.76-3.22,4.6-3.77
			c0.34-0.21,0.58-0.33,0.71-0.36c0.08,0,0.13,0.01,0.16,0.04l0.08,0.04c0.11,0.08,0.16,0.18,0.16,0.32c0,0.42-0.85,1.61-2.54,3.57
			c2.94-2.54,4.66-3.6,5.16-3.18c0.05,0.08,0.08,0.16,0.08,0.24c0,0.29-2.21,2.79-6.63,7.5l-0.87,0.91l-0.87,0.95
			c2.96-3.02,6.14-6.29,9.53-9.81c0.16-0.16,0.3-0.17,0.44-0.04l0.08,0.16l0.08,0.16c0,0.42-1.89,2.5-5.68,6.23
			c-0.64,0.64-1.16,1.16-1.59,1.59c-0.61,0.61-1.15,1.15-1.63,1.63c-1.19,1.22-2.02,2.12-2.5,2.7c0.74-0.53,1.96-1.43,3.65-2.7
			c1.11-0.85,2.66-2.02,4.64-3.53c4.55-3.44,7.07-5.29,7.54-5.56l0.04-0.04c0.19-0.11,0.33-0.12,0.44-0.04
			c0.08,0.08,0.12,0.16,0.12,0.24c0,0.08-0.03,0.16-0.08,0.24l-8.77,9.73l0.99-0.99l1.03-0.99c4.31-4.21,7.32-7.01,9.01-8.42
			c1.96-1.61,3.16-2.22,3.61-1.83C472.19,99.76,472.23,99.84,472.26,99.92z M442.09,111.23c1.24-1.35,2.82-3.07,4.72-5.16
			c-0.95,0.93-1.75,1.71-2.38,2.34c-0.95,0.95-1.79,1.8-2.5,2.54c-1.85,1.91-2.95,3.18-3.29,3.81
			C439.22,114.24,440.37,113.06,442.09,111.23z M451.94,101.91c-0.64,1.16-2.78,3.59-6.43,7.26c-0.4,0.48-0.83,0.98-1.31,1.51
			c-0.29,0.37-0.67,0.82-1.15,1.35c6.77-6.59,10.16-10.32,10.16-11.19C452.99,100.91,452.57,101.27,451.94,101.91z"/>
	</g>
	<g>
		<path class="st1" d="M404.17,99.92c0,0.11-0.04,0.19-0.12,0.24c-7.78,7.62-12.48,12.62-14.09,15.01l16.87-12.5
			c0.13-0.11,0.27-0.11,0.4,0l0.08,0.12l0.04,0.16c0,0.32-1.59,2.08-4.76,5.28l-0.79,0.79l-0.83,0.83
			c-0.61,0.66-1.15,1.23-1.63,1.71c-1.19,1.24-1.98,2.13-2.38,2.66c0.56-0.37,1.5-1.15,2.82-2.34c0.5-0.45,1.09-0.98,1.75-1.59
			l0.83-0.79l0.44-0.36l0.36-0.4c2.12-1.96,3.43-3.12,3.93-3.49c0.45-0.34,0.77-0.44,0.95-0.28c0.05,0.05,0.08,0.12,0.08,0.2
			c0.03,0.08,0,0.16-0.08,0.24c-1.03,1.06-2.05,2.13-3.06,3.22c0.98-0.85,1.68-1.35,2.1-1.51c0.16-0.08,0.29-0.11,0.4-0.08
			l0.08,0.04l0.08,0.08l0.12,0.16c0.05,0.08,0.07,0.13,0.04,0.16c0,0.18-0.13,0.48-0.4,0.87l0.04,0.04v0.04l-0.04,0.12l-0.04,0.12
			c-0.66,0.69-1.23,1.28-1.71,1.79l-0.56,0.56c-0.98,1.03-1.73,1.87-2.26,2.5c3.52-1.72,5.37-2.5,5.56-2.34
			c0.08,0.08,0.12,0.16,0.12,0.24c0,0.08-0.03,0.16-0.08,0.24c-0.32,0.34-0.75,0.82-1.31,1.43l-0.32,0.36l-0.28,0.32
			c-0.24,0.26-0.41,0.45-0.52,0.56l1.79,0.32c0.18,0.05,0.28,0.16,0.28,0.32c-0.03,0.13-0.13,0.29-0.32,0.48
			c-0.13,0.13-0.28,0.13-0.44,0c-0.08-0.08-0.11-0.16-0.08-0.24l-1.91-0.36c-0.05,0-0.11-0.03-0.16-0.08
			c-0.11-0.11-0.08-0.26,0.08-0.48c0.19-0.24,0.78-0.93,1.79-2.06c-0.61,0.29-1.43,0.69-2.46,1.19c-0.85,0.4-1.72,0.81-2.62,1.23
			c-0.13,0.05-0.25,0.04-0.36-0.04l-0.04-0.08l-0.36,0.36l-0.32,0.28c-0.16,0.13-0.29,0.12-0.4-0.04c-0.16-0.11-0.17-0.24-0.04-0.4
			c0.48-0.58,0.97-1.15,1.47-1.71c0.63-0.74,1.23-1.42,1.79-2.02c1.51-1.59,2.53-2.51,3.06-2.78l0.16-0.2l0.12-0.16
			c-0.19,0.11-0.42,0.28-0.71,0.52c-0.37,0.26-0.79,0.62-1.27,1.07c-1.27,1.14-2.92,2.75-4.96,4.84c-0.19,0.18-0.33,0.28-0.44,0.28
			c-0.08,0-0.15-0.03-0.2-0.08c-0.08-0.05-0.12-0.13-0.12-0.24v-0.08c0.03-0.03,0.05-0.07,0.08-0.12c0.05-0.13,0.19-0.33,0.4-0.6
			c0.61-0.77,1.76-2.08,3.45-3.93c-2.67,2.51-4.47,4.11-5.4,4.8c-0.9,0.69-1.48,0.93-1.75,0.71l-0.08-0.16l-0.04-0.16
			c0-0.48,2.05-2.78,6.15-6.91c1.35-1.38,2.36-2.42,3.02-3.14l-15.64,11.63c-0.13,0.11-0.26,0.11-0.4,0l-0.08-0.16
			c-0.05-0.05-0.08-0.12-0.08-0.2c0-0.71,1.85-3.04,5.56-6.99c1.32-1.4,2.86-2.99,4.6-4.76c0.66-0.66,1.34-1.35,2.02-2.06
			c0.56-0.53,1.1-1.06,1.63-1.59c-0.95,0.61-2.65,2.04-5.08,4.29c-0.9,0.82-1.93,1.8-3.1,2.94c-0.42,0.4-0.9,0.86-1.43,1.39
			l-0.67,0.64l-0.64,0.6c-2.78,2.73-4.5,4.35-5.16,4.88c-0.58,0.5-0.97,0.66-1.15,0.48c-0.08-0.05-0.12-0.13-0.12-0.24v-0.12
			l0.08-0.08l10.24-11.39c-1.46,1.08-3.2,2.41-5.24,3.97c-4.66,3.55-7.41,5.61-8.26,6.19c-0.79,0.58-1.27,0.81-1.43,0.67
			c-0.08-0.08-0.12-0.19-0.12-0.32c-0.03-0.05-0.03-0.12,0-0.2c-1.69,1.64-2.65,2.37-2.86,2.18c-0.08-0.05-0.12-0.13-0.12-0.24
			c0-0.29,2.22-2.79,6.67-7.5c0.77-0.82,1.36-1.46,1.79-1.91c0.66-0.74,1.24-1.38,1.75-1.91c1.27-1.35,2.13-2.29,2.58-2.82
			c-1.64,0.85-5.5,4.25-11.59,10.2c-1.67,1.69-2.78,2.82-3.33,3.37c-0.16,0.13-0.32,0.13-0.48,0c-0.13-0.16-0.13-0.3,0-0.44
			c0.87-0.9,2.09-2.13,3.65-3.69c5.16-5.21,8.2-8.55,9.13-10c-1.03,0.71-3.29,2.66-6.79,5.84c-2.83,2.57-5.84,5.36-9.01,8.38
			c-0.08,0.11-0.18,0.13-0.32,0.08c-0.08-0.03-0.15-0.08-0.2-0.16c-0.53,0.45-0.93,0.69-1.19,0.71c-0.08,0-0.15-0.01-0.2-0.04
			l-0.16-0.08c-0.08-0.05-0.12-0.13-0.12-0.24c0-0.08,0.05-0.19,0.16-0.32l-0.08-0.04c-0.05-0.03-0.09-0.08-0.12-0.16
			c-0.03-0.05-0.04-0.13-0.04-0.24c0.03-0.4,0.38-1.03,1.07-1.91c-0.98,0.82-1.67,1.34-2.06,1.55c-0.16,0.08-0.28,0.12-0.36,0.12
			l-0.12-0.04l-0.04-0.04l-0.12-0.16c-0.03-0.05-0.04-0.12-0.04-0.2c0-0.11,0.04-0.25,0.12-0.44c-0.64,0.61-1.1,1.02-1.39,1.23
			l-0.12,0.16l-0.04-0.04c-0.19,0.13-0.32,0.15-0.4,0.04c-0.05-0.05-0.09-0.12-0.12-0.2c-0.03-0.08,0-0.16,0.08-0.24l9.09-10.08
			c-0.74,0.74-1.53,1.56-2.38,2.46c-3.25,3.36-5.37,5.49-6.35,6.39c-1.01,0.87-1.65,1.19-1.94,0.95c-0.08-0.08-0.12-0.17-0.12-0.28
			l-1.11,1.15c-0.13,0.16-0.28,0.17-0.44,0.04c-0.05-0.05-0.09-0.11-0.12-0.16c-0.03-0.08-0.04-0.16-0.04-0.24v-0.08l-0.32,0.32
			l-0.32,0.32c-0.13,0.16-0.28,0.16-0.44,0c-0.16-0.13-0.16-0.28,0-0.44l13.02-14.45c-0.85,0.58-2.24,1.84-4.17,3.77
			c-0.71,0.71-1.55,1.56-2.5,2.54c-0.37,0.34-0.78,0.75-1.23,1.23l-0.56,0.6l-0.52,0.56c-2.8,2.91-4.6,4.71-5.4,5.4
			c-0.79,0.69-1.31,0.93-1.55,0.71l-0.12-0.12c-0.03-0.08-0.04-0.16-0.04-0.24c0-0.45,0.73-1.52,2.18-3.22
			c1.14-1.35,2.73-3.07,4.76-5.16c-2.8,2.49-6.07,5.41-9.8,8.77c-0.16,0.16-0.3,0.16-0.44,0c-0.16-0.16-0.16-0.3,0-0.44
			c5.27-5.16,8.97-9.04,11.12-11.63c-5.82,5.77-9.9,9.57-12.23,11.39c-0.85,0.66-1.46,1.06-1.83,1.19
			c-0.13,0.05-0.24,0.07-0.32,0.04h-0.08l-0.04-0.08l-0.12-0.12c-0.03-0.05-0.04-0.12-0.04-0.2c0-0.37,0.57-1.23,1.71-2.58
			c-1.64,1.38-2.7,1.85-3.18,1.43c-0.16-0.13-0.16-0.28,0-0.44l10.8-12.03c-1.06,1.01-2.42,2.4-4.09,4.17l-8.65,9.61
			c-0.13,0.16-0.28,0.17-0.44,0.04c-0.18-0.16-0.2-0.3-0.04-0.44c0.4-0.48,0.86-1.01,1.39-1.59c0.69-0.79,1.39-1.59,2.1-2.38
			c1.96-2.2,3.72-4.12,5.28-5.76l2.14-2.42c-1.48,1.46-3.35,3.35-5.6,5.68c-1.88,1.93-3.78,3.93-5.72,5.99
			c-0.16,0.13-0.3,0.13-0.44,0c-0.08-0.05-0.12-0.13-0.12-0.24c0-0.26,1.64-2.09,4.92-5.48l0.71-0.75l0.75-0.75
			c0.58-0.61,1.1-1.15,1.55-1.63c1.19-1.27,2.12-2.26,2.78-2.98l-0.64,0.52l-0.67,0.6c-4.34,3.78-7.46,6.38-9.37,7.78
			c-1.91,1.4-3.12,1.98-3.65,1.75c-0.08,0-0.15-0.03-0.2-0.08c-0.08-0.08-0.12-0.17-0.12-0.28c0-0.34,1.15-1.8,3.45-4.37
			c1.69-1.85,3.9-4.19,6.63-7.03c-0.66,0.48-1.57,1.23-2.74,2.26c-0.45,0.4-0.94,0.83-1.47,1.31l-0.71,0.6
			c-0.16,0.16-0.36,0.34-0.6,0.56c-1.64,1.46-2.65,2.33-3.02,2.62c-0.34,0.24-0.6,0.29-0.75,0.16c-0.05-0.05-0.08-0.13-0.08-0.24
			c-0.03-0.19,2.26-2.78,6.87-7.78l-7.38,4.21c-0.16,0.11-0.29,0.08-0.4-0.08c-0.11-0.16-0.09-0.29,0.04-0.4
			c2.01-1.98,3.24-3.31,3.69-3.97c-0.26-0.13-0.99-0.42-2.18-0.87c-0.13-0.05-0.22-0.11-0.28-0.16c-0.05-0.05-0.08-0.12-0.08-0.2
			l0.04-0.12l0.08-0.12l0.08-0.08c0.13-0.16,0.28-0.16,0.44,0c0.03,0.03,0.05,0.07,0.08,0.12c1.56,0.63,2.38,0.98,2.46,1.03
			c0.08,0.08,0.12,0.17,0.12,0.28v0.04l-0.04,0.12c-0.05,0.11-0.15,0.24-0.28,0.4c-0.34,0.5-1.02,1.27-2.02,2.3l7.07-4.09
			c0.16-0.08,0.3-0.05,0.44,0.08c0.11,0.16,0.09,0.29-0.04,0.4l-0.67,0.75l-0.67,0.75l-1.47,1.63c-1.16,1.27-2.1,2.29-2.82,3.06
			l0.36-0.32c4.18-3.76,6.6-5.6,7.26-5.52l0.75-0.87c0.13-0.16,0.28-0.17,0.44-0.04l0.08,0.12l0.04,0.16
			c0,0.56-3.37,4.37-10.12,11.43l-0.44,0.44l-0.4,0.44c-0.29,0.29-0.52,0.52-0.67,0.67c0.93-0.37,2.82-1.72,5.68-4.05
			c1.03-0.85,2.18-1.81,3.45-2.9c0.48-0.42,0.98-0.86,1.51-1.31c0.21-0.19,0.44-0.38,0.67-0.6l0.28-0.24l0.28-0.24
			c1.61-1.4,2.57-2.21,2.86-2.42c0.26-0.21,0.48-0.26,0.63-0.16l0.08,0.12l0.04,0.16c0,0.11-0.04,0.22-0.12,0.36
			c1.17-1.09,1.97-1.76,2.42-2.02c0.19-0.11,0.33-0.16,0.44-0.16l0.08,0.04l0.08,0.04c0.08,0.05,0.12,0.12,0.12,0.2
			c0,0.05-0.01,0.12-0.04,0.2c0.24-0.16,0.42-0.24,0.56-0.24c0.08-0.03,0.15-0.03,0.2,0c0.05,0.03,0.09,0.07,0.12,0.12
			c0.08,0.03,0.12,0.09,0.12,0.2c0,0.08-0.03,0.16-0.08,0.24l-12.19,13.5c0.85-0.42,2.53-1.87,5.04-4.33c0.9-0.9,1.93-1.95,3.1-3.14
			c0.45-0.45,0.93-0.94,1.43-1.47l0.67-0.67l0.28-0.32l0.32-0.32c2.14-2.25,3.44-3.57,3.89-3.97c0.42-0.37,0.71-0.48,0.87-0.32
			c0.08,0.05,0.12,0.13,0.12,0.24c0,0.08-0.03,0.16-0.08,0.24c-8.47,8.34-13.24,13.48-14.33,15.44c0.9-0.56,3.04-2.42,6.43-5.6
			c2.81-2.62,5.7-5.43,8.69-8.42c0.16-0.13,0.3-0.13,0.44,0l0.12,0.12c0.03,0.05,0.04,0.12,0.04,0.2c0,0.64-1.69,2.75-5.08,6.35
			c4.98-4.45,7.85-6.95,8.61-7.5l0.08-0.08l0.12-0.12l0.04,0.04c0.16-0.11,0.29-0.12,0.4-0.04c0.05,0.05,0.08,0.13,0.08,0.24
			c-0.03,0.11-0.05,0.18-0.08,0.24c-7.67,7.46-12.03,12.12-13.06,13.97c0.45-0.34,1.26-1.11,2.42-2.3c0.48-0.48,1.03-1.05,1.67-1.71
			c0.42-0.42,1.01-1.02,1.75-1.79c3.76-3.92,6.34-6.48,7.74-7.7c1.54-1.32,2.5-1.8,2.9-1.43c0.16,0.13,0.17,0.28,0.04,0.44
			l-1.83,2.02c0.98-0.95,1.55-1.36,1.71-1.23c0.08,0.05,0.12,0.13,0.12,0.24l1.59-1.63c0.13-0.13,0.28-0.13,0.44,0
			c0.08,0.11,0.12,0.21,0.12,0.32c0,0.56-2.24,3.04-6.71,7.46l-0.83,0.87l-0.91,0.87c-0.66,0.69-1.23,1.26-1.71,1.71
			c-1.22,1.27-2.04,2.17-2.46,2.7c0.61-0.48,1.64-1.44,3.1-2.9c0.56-0.56,1.2-1.22,1.94-1.98l0.99-1.03l0.91-0.95
			c2.99-3.1,4.92-5.03,5.8-5.8c0.77-0.66,1.27-0.89,1.51-0.67c0.05,0.05,0.08,0.12,0.08,0.2c0.03,0.08,0,0.16-0.08,0.24l-5.64,6.27
			c1.03-1.06,2.16-2.18,3.37-3.37c0.42-0.42,0.86-0.86,1.31-1.31c0.16-0.16,0.33-0.33,0.52-0.52l0.2-0.2l0.2-0.16
			c0.13-0.16,0.28-0.16,0.44,0c0.16,0.16,0.16,0.3,0,0.44c-2.94,2.99-5.62,5.72-8.06,8.18c-1.75,1.88-2.82,3.15-3.22,3.81
			c0.93-0.66,3.02-2.57,6.27-5.72c2.65-2.57,5.43-5.33,8.34-8.3c0.13-0.13,0.28-0.13,0.44,0c0.08,0.05,0.12,0.13,0.12,0.24
			c0,0.13-0.07,0.28-0.2,0.44l0.04,0.04l0.04,0.08c0.53-0.45,0.93-0.69,1.19-0.71c0.08,0,0.15,0.01,0.2,0.04l0.16,0.08
			c0.05,0.05,0.09,0.11,0.12,0.16c0.05,0.11,0.08,0.21,0.08,0.32c0,0.61-0.9,1.92-2.7,3.93c2.22-1.96,3.76-3.22,4.6-3.77
			c0.34-0.21,0.58-0.33,0.71-0.36c0.08,0,0.13,0.01,0.16,0.04l0.08,0.04c0.11,0.08,0.16,0.18,0.16,0.32c0,0.42-0.85,1.61-2.54,3.57
			c2.94-2.54,4.66-3.6,5.16-3.18c0.05,0.08,0.08,0.16,0.08,0.24c0,0.29-2.21,2.79-6.63,7.5l-0.87,0.91l-0.87,0.95
			c2.96-3.02,6.14-6.29,9.53-9.81c0.16-0.16,0.3-0.17,0.44-0.04l0.08,0.16l0.08,0.16c0,0.42-1.89,2.5-5.68,6.23
			c-0.64,0.64-1.16,1.16-1.59,1.59c-0.61,0.61-1.15,1.15-1.63,1.63c-1.19,1.22-2.02,2.12-2.5,2.7c0.74-0.53,1.96-1.43,3.65-2.7
			c1.11-0.85,2.66-2.02,4.64-3.53c4.55-3.44,7.07-5.29,7.54-5.56l0.04-0.04c0.19-0.11,0.33-0.12,0.44-0.04
			c0.08,0.08,0.12,0.16,0.12,0.24c0,0.08-0.03,0.16-0.08,0.24l-8.77,9.73l0.99-0.99l1.03-0.99c4.31-4.21,7.32-7.01,9.01-8.42
			c1.96-1.61,3.16-2.22,3.61-1.83C404.11,99.76,404.15,99.84,404.17,99.92z M374,111.23c1.24-1.35,2.82-3.07,4.72-5.16
			c-0.95,0.93-1.75,1.71-2.38,2.34c-0.95,0.95-1.79,1.8-2.5,2.54c-1.85,1.91-2.95,3.18-3.29,3.81
			C371.13,114.24,372.28,113.06,374,111.23z M383.85,101.91c-0.64,1.16-2.78,3.59-6.43,7.26c-0.4,0.48-0.83,0.98-1.31,1.51
			c-0.29,0.37-0.67,0.82-1.15,1.35c6.77-6.59,10.16-10.32,10.16-11.19C384.91,100.91,384.48,101.27,383.85,101.91z"/>
	</g>
	<g>
		<path class="st0" d="M336.09,99.92c0,0.11-0.04,0.19-0.12,0.24c-7.78,7.62-12.48,12.62-14.09,15.01l16.87-12.5
			c0.13-0.11,0.27-0.11,0.4,0l0.08,0.12l0.04,0.16c0,0.32-1.59,2.08-4.76,5.28l-0.79,0.79l-0.83,0.83
			c-0.61,0.66-1.15,1.23-1.63,1.71c-1.19,1.24-1.98,2.13-2.38,2.66c0.56-0.37,1.5-1.15,2.82-2.34c0.5-0.45,1.09-0.98,1.75-1.59
			l0.83-0.79l0.44-0.36l0.36-0.4c2.12-1.96,3.43-3.12,3.93-3.49c0.45-0.34,0.77-0.44,0.95-0.28c0.05,0.05,0.08,0.12,0.08,0.2
			c0.03,0.08,0,0.16-0.08,0.24c-1.03,1.06-2.05,2.13-3.06,3.22c0.98-0.85,1.68-1.35,2.1-1.51c0.16-0.08,0.29-0.11,0.4-0.08
			l0.08,0.04l0.08,0.08l0.12,0.16c0.05,0.08,0.07,0.13,0.04,0.16c0,0.18-0.13,0.48-0.4,0.87l0.04,0.04v0.04l-0.04,0.12l-0.04,0.12
			c-0.66,0.69-1.23,1.28-1.71,1.79L337,111c-0.98,1.03-1.73,1.87-2.26,2.5c3.52-1.72,5.37-2.5,5.56-2.34
			c0.08,0.08,0.12,0.16,0.12,0.24c0,0.08-0.03,0.16-0.08,0.24c-0.32,0.34-0.75,0.82-1.31,1.43l-0.32,0.36l-0.28,0.32
			c-0.24,0.26-0.41,0.45-0.52,0.56l1.79,0.32c0.18,0.05,0.28,0.16,0.28,0.32c-0.03,0.13-0.13,0.29-0.32,0.48
			c-0.13,0.13-0.28,0.13-0.44,0c-0.08-0.08-0.11-0.16-0.08-0.24l-1.91-0.36c-0.05,0-0.11-0.03-0.16-0.08
			c-0.11-0.11-0.08-0.26,0.08-0.48c0.19-0.24,0.78-0.93,1.79-2.06c-0.61,0.29-1.43,0.69-2.46,1.19c-0.85,0.4-1.72,0.81-2.62,1.23
			c-0.13,0.05-0.25,0.04-0.36-0.04l-0.04-0.08l-0.36,0.36l-0.32,0.28c-0.16,0.13-0.29,0.12-0.4-0.04c-0.16-0.11-0.17-0.24-0.04-0.4
			c0.48-0.58,0.97-1.15,1.47-1.71c0.63-0.74,1.23-1.42,1.79-2.02c1.51-1.59,2.53-2.51,3.06-2.78l0.16-0.2l0.12-0.16
			c-0.19,0.11-0.42,0.28-0.71,0.52c-0.37,0.26-0.79,0.62-1.27,1.07c-1.27,1.14-2.92,2.75-4.96,4.84c-0.19,0.18-0.33,0.28-0.44,0.28
			c-0.08,0-0.15-0.03-0.2-0.08c-0.08-0.05-0.12-0.13-0.12-0.24v-0.08c0.03-0.03,0.05-0.07,0.08-0.12c0.05-0.13,0.19-0.33,0.4-0.6
			c0.61-0.77,1.76-2.08,3.45-3.93c-2.67,2.51-4.47,4.11-5.4,4.8c-0.9,0.69-1.48,0.93-1.75,0.71l-0.08-0.16l-0.04-0.16
			c0-0.48,2.05-2.78,6.15-6.91c1.35-1.38,2.36-2.42,3.02-3.14l-15.64,11.63c-0.13,0.11-0.26,0.11-0.4,0l-0.08-0.16
			c-0.05-0.05-0.08-0.12-0.08-0.2c0-0.71,1.85-3.04,5.56-6.99c1.32-1.4,2.86-2.99,4.6-4.76c0.66-0.66,1.34-1.35,2.02-2.06
			c0.56-0.53,1.1-1.06,1.63-1.59c-0.95,0.61-2.65,2.04-5.08,4.29c-0.9,0.82-1.93,1.8-3.1,2.94c-0.42,0.4-0.9,0.86-1.43,1.39
			l-0.67,0.64l-0.64,0.6c-2.78,2.73-4.5,4.35-5.16,4.88c-0.58,0.5-0.97,0.66-1.15,0.48c-0.08-0.05-0.12-0.13-0.12-0.24v-0.12
			l0.08-0.08l10.24-11.39c-1.46,1.08-3.2,2.41-5.24,3.97c-4.66,3.55-7.41,5.61-8.26,6.19c-0.79,0.58-1.27,0.81-1.43,0.67
			c-0.08-0.08-0.12-0.19-0.12-0.32c-0.03-0.05-0.03-0.12,0-0.2c-1.69,1.64-2.65,2.37-2.86,2.18c-0.08-0.05-0.12-0.13-0.12-0.24
			c0-0.29,2.22-2.79,6.67-7.5c0.77-0.82,1.36-1.46,1.79-1.91c0.66-0.74,1.24-1.38,1.75-1.91c1.27-1.35,2.13-2.29,2.58-2.82
			c-1.64,0.85-5.5,4.25-11.59,10.2c-1.67,1.69-2.78,2.82-3.33,3.37c-0.16,0.13-0.32,0.13-0.48,0c-0.13-0.16-0.13-0.3,0-0.44
			c0.87-0.9,2.09-2.13,3.65-3.69c5.16-5.21,8.2-8.55,9.13-10c-1.03,0.71-3.29,2.66-6.79,5.84c-2.83,2.57-5.84,5.36-9.01,8.38
			c-0.08,0.11-0.18,0.13-0.32,0.08c-0.08-0.03-0.15-0.08-0.2-0.16c-0.53,0.45-0.93,0.69-1.19,0.71c-0.08,0-0.15-0.01-0.2-0.04
			l-0.16-0.08c-0.08-0.05-0.12-0.13-0.12-0.24c0-0.08,0.05-0.19,0.16-0.32l-0.08-0.04c-0.05-0.03-0.09-0.08-0.12-0.16
			c-0.03-0.05-0.04-0.13-0.04-0.24c0.03-0.4,0.38-1.03,1.07-1.91c-0.98,0.82-1.67,1.34-2.06,1.55c-0.16,0.08-0.28,0.12-0.36,0.12
			l-0.12-0.04l-0.04-0.04l-0.12-0.16c-0.03-0.05-0.04-0.12-0.04-0.2c0-0.11,0.04-0.25,0.12-0.44c-0.64,0.61-1.1,1.02-1.39,1.23
			l-0.12,0.16l-0.04-0.04c-0.19,0.13-0.32,0.15-0.4,0.04c-0.05-0.05-0.09-0.12-0.12-0.2c-0.03-0.08,0-0.16,0.08-0.24l9.09-10.08
			c-0.74,0.74-1.53,1.56-2.38,2.46c-3.25,3.36-5.37,5.49-6.35,6.39c-1.01,0.87-1.65,1.19-1.94,0.95c-0.08-0.08-0.12-0.17-0.12-0.28
			l-1.11,1.15c-0.13,0.16-0.28,0.17-0.44,0.04c-0.05-0.05-0.09-0.11-0.12-0.16c-0.03-0.08-0.04-0.16-0.04-0.24v-0.08l-0.32,0.32
			l-0.32,0.32c-0.13,0.16-0.28,0.16-0.44,0c-0.16-0.13-0.16-0.28,0-0.44l13.02-14.45c-0.85,0.58-2.24,1.84-4.17,3.77
			c-0.71,0.71-1.55,1.56-2.5,2.54c-0.37,0.34-0.78,0.75-1.23,1.23l-0.56,0.6l-0.52,0.56c-2.8,2.91-4.6,4.71-5.4,5.4
			c-0.79,0.69-1.31,0.93-1.55,0.71l-0.12-0.12c-0.03-0.08-0.04-0.16-0.04-0.24c0-0.45,0.73-1.52,2.18-3.22
			c1.14-1.35,2.73-3.07,4.76-5.16c-2.8,2.49-6.07,5.41-9.8,8.77c-0.16,0.16-0.3,0.16-0.44,0c-0.16-0.16-0.16-0.3,0-0.44
			c5.27-5.16,8.97-9.04,11.12-11.63c-5.82,5.77-9.9,9.57-12.23,11.39c-0.85,0.66-1.46,1.06-1.83,1.19
			c-0.13,0.05-0.24,0.07-0.32,0.04h-0.08l-0.04-0.08l-0.12-0.12c-0.03-0.05-0.04-0.12-0.04-0.2c0-0.37,0.57-1.23,1.71-2.58
			c-1.64,1.38-2.7,1.85-3.18,1.43c-0.16-0.13-0.16-0.28,0-0.44l10.8-12.03c-1.06,1.01-2.42,2.4-4.09,4.17l-8.65,9.61
			c-0.13,0.16-0.28,0.17-0.44,0.04c-0.18-0.16-0.2-0.3-0.04-0.44c0.4-0.48,0.86-1.01,1.39-1.59c0.69-0.79,1.39-1.59,2.1-2.38
			c1.96-2.2,3.72-4.12,5.28-5.76l2.14-2.42c-1.48,1.46-3.35,3.35-5.6,5.68c-1.88,1.93-3.78,3.93-5.72,5.99
			c-0.16,0.13-0.3,0.13-0.44,0c-0.08-0.05-0.12-0.13-0.12-0.24c0-0.26,1.64-2.09,4.92-5.48l0.71-0.75l0.75-0.75
			c0.58-0.61,1.1-1.15,1.55-1.63c1.19-1.27,2.12-2.26,2.78-2.98l-0.64,0.52l-0.67,0.6c-4.34,3.78-7.46,6.38-9.37,7.78
			c-1.91,1.4-3.12,1.98-3.65,1.75c-0.08,0-0.15-0.03-0.2-0.08c-0.08-0.08-0.12-0.17-0.12-0.28c0-0.34,1.15-1.8,3.45-4.37
			c1.69-1.85,3.9-4.19,6.63-7.03c-0.66,0.48-1.57,1.23-2.74,2.26c-0.45,0.4-0.94,0.83-1.47,1.31l-0.71,0.6
			c-0.16,0.16-0.36,0.34-0.6,0.56c-1.64,1.46-2.65,2.33-3.02,2.62c-0.34,0.24-0.6,0.29-0.75,0.16c-0.05-0.05-0.08-0.13-0.08-0.24
			c-0.03-0.19,2.26-2.78,6.87-7.78l-7.38,4.21c-0.16,0.11-0.29,0.08-0.4-0.08c-0.11-0.16-0.09-0.29,0.04-0.4
			c2.01-1.98,3.24-3.31,3.69-3.97c-0.26-0.13-0.99-0.42-2.18-0.87c-0.13-0.05-0.22-0.11-0.28-0.16c-0.05-0.05-0.08-0.12-0.08-0.2
			l0.04-0.12l0.08-0.12l0.08-0.08c0.13-0.16,0.28-0.16,0.44,0c0.03,0.03,0.05,0.07,0.08,0.12c1.56,0.63,2.38,0.98,2.46,1.03
			c0.08,0.08,0.12,0.17,0.12,0.28v0.04l-0.04,0.12c-0.05,0.11-0.15,0.24-0.28,0.4c-0.34,0.5-1.02,1.27-2.02,2.3l7.07-4.09
			c0.16-0.08,0.3-0.05,0.44,0.08c0.11,0.16,0.09,0.29-0.04,0.4l-0.67,0.75l-0.67,0.75l-1.47,1.63c-1.16,1.27-2.1,2.29-2.82,3.06
			l0.36-0.32c4.18-3.76,6.6-5.6,7.26-5.52l0.75-0.87c0.13-0.16,0.28-0.17,0.44-0.04l0.08,0.12l0.04,0.16
			c0,0.56-3.37,4.37-10.12,11.43l-0.44,0.44l-0.4,0.44c-0.29,0.29-0.52,0.52-0.67,0.67c0.93-0.37,2.82-1.72,5.68-4.05
			c1.03-0.85,2.18-1.81,3.45-2.9c0.48-0.42,0.98-0.86,1.51-1.31c0.21-0.19,0.44-0.38,0.67-0.6l0.28-0.24l0.28-0.24
			c1.61-1.4,2.57-2.21,2.86-2.42c0.26-0.21,0.48-0.26,0.63-0.16l0.08,0.12l0.04,0.16c0,0.11-0.04,0.22-0.12,0.36
			c1.17-1.09,1.97-1.76,2.42-2.02c0.19-0.11,0.33-0.16,0.44-0.16l0.08,0.04l0.08,0.04c0.08,0.05,0.12,0.12,0.12,0.2
			c0,0.05-0.01,0.12-0.04,0.2c0.24-0.16,0.42-0.24,0.56-0.24c0.08-0.03,0.15-0.03,0.2,0c0.05,0.03,0.09,0.07,0.12,0.12
			c0.08,0.03,0.12,0.09,0.12,0.2c0,0.08-0.03,0.16-0.08,0.24l-12.19,13.5c0.85-0.42,2.53-1.87,5.04-4.33c0.9-0.9,1.93-1.95,3.1-3.14
			c0.45-0.45,0.93-0.94,1.43-1.47l0.67-0.67l0.28-0.32l0.32-0.32c2.14-2.25,3.44-3.57,3.89-3.97c0.42-0.37,0.71-0.48,0.87-0.32
			c0.08,0.05,0.12,0.13,0.12,0.24c0,0.08-0.03,0.16-0.08,0.24c-8.47,8.34-13.24,13.48-14.33,15.44c0.9-0.56,3.04-2.42,6.43-5.6
			c2.81-2.62,5.7-5.43,8.69-8.42c0.16-0.13,0.3-0.13,0.44,0l0.12,0.12c0.03,0.05,0.04,0.12,0.04,0.2c0,0.64-1.69,2.75-5.08,6.35
			c4.98-4.45,7.85-6.95,8.61-7.5l0.08-0.08l0.12-0.12l0.04,0.04c0.16-0.11,0.29-0.12,0.4-0.04c0.05,0.05,0.08,0.13,0.08,0.24
			c-0.03,0.11-0.05,0.18-0.08,0.24c-7.67,7.46-12.03,12.12-13.06,13.97c0.45-0.34,1.26-1.11,2.42-2.3c0.48-0.48,1.03-1.05,1.67-1.71
			c0.42-0.42,1.01-1.02,1.75-1.79c3.76-3.92,6.34-6.48,7.74-7.7c1.54-1.32,2.5-1.8,2.9-1.43c0.16,0.13,0.17,0.28,0.04,0.44
			l-1.83,2.02c0.98-0.95,1.55-1.36,1.71-1.23c0.08,0.05,0.12,0.13,0.12,0.24l1.59-1.63c0.13-0.13,0.28-0.13,0.44,0
			c0.08,0.11,0.12,0.21,0.12,0.32c0,0.56-2.24,3.04-6.71,7.46l-0.83,0.87l-0.91,0.87c-0.66,0.69-1.23,1.26-1.71,1.71
			c-1.22,1.27-2.04,2.17-2.46,2.7c0.61-0.48,1.64-1.44,3.1-2.9c0.56-0.56,1.2-1.22,1.94-1.98l0.99-1.03l0.91-0.95
			c2.99-3.1,4.92-5.03,5.8-5.8c0.77-0.66,1.27-0.89,1.51-0.67c0.05,0.05,0.08,0.12,0.08,0.2c0.03,0.08,0,0.16-0.08,0.24l-5.64,6.27
			c1.03-1.06,2.16-2.18,3.37-3.37c0.42-0.42,0.86-0.86,1.31-1.31c0.16-0.16,0.33-0.33,0.52-0.52l0.2-0.2l0.2-0.16
			c0.13-0.16,0.28-0.16,0.44,0c0.16,0.16,0.16,0.3,0,0.44c-2.94,2.99-5.62,5.72-8.06,8.18c-1.75,1.88-2.82,3.15-3.22,3.81
			c0.93-0.66,3.02-2.57,6.27-5.72c2.65-2.57,5.43-5.33,8.34-8.3c0.13-0.13,0.28-0.13,0.44,0c0.08,0.05,0.12,0.13,0.12,0.24
			c0,0.13-0.07,0.28-0.2,0.44l0.04,0.04l0.04,0.08c0.53-0.45,0.93-0.69,1.19-0.71c0.08,0,0.15,0.01,0.2,0.04l0.16,0.08
			c0.05,0.05,0.09,0.11,0.12,0.16c0.05,0.11,0.08,0.21,0.08,0.32c0,0.61-0.9,1.92-2.7,3.93c2.22-1.96,3.76-3.22,4.6-3.77
			c0.34-0.21,0.58-0.33,0.71-0.36c0.08,0,0.13,0.01,0.16,0.04l0.08,0.04c0.11,0.08,0.16,0.18,0.16,0.32c0,0.42-0.85,1.61-2.54,3.57
			c2.94-2.54,4.66-3.6,5.16-3.18c0.05,0.08,0.08,0.16,0.08,0.24c0,0.29-2.21,2.79-6.63,7.5l-0.87,0.91l-0.87,0.95
			c2.96-3.02,6.14-6.29,9.53-9.81c0.16-0.16,0.3-0.17,0.44-0.04l0.08,0.16l0.08,0.16c0,0.42-1.89,2.5-5.68,6.23
			c-0.64,0.64-1.16,1.16-1.59,1.59c-0.61,0.61-1.15,1.15-1.63,1.63c-1.19,1.22-2.02,2.12-2.5,2.7c0.74-0.53,1.96-1.43,3.65-2.7
			c1.11-0.85,2.66-2.02,4.64-3.53c4.55-3.44,7.07-5.29,7.54-5.56l0.04-0.04c0.19-0.11,0.33-0.12,0.44-0.04
			c0.08,0.08,0.12,0.16,0.12,0.24c0,0.08-0.03,0.16-0.08,0.24l-8.77,9.73l0.99-0.99l1.03-0.99c4.31-4.21,7.32-7.01,9.01-8.42
			c1.96-1.61,3.16-2.22,3.61-1.83C336.02,99.76,336.06,99.84,336.09,99.92z M305.92,111.23c1.24-1.35,2.82-3.07,4.72-5.16
			c-0.95,0.93-1.75,1.71-2.38,2.34c-0.95,0.95-1.79,1.8-2.5,2.54c-1.85,1.91-2.95,3.18-3.29,3.81
			C303.05,114.24,304.2,113.06,305.92,111.23z M315.76,101.91c-0.64,1.16-2.78,3.59-6.43,7.26c-0.4,0.48-0.83,0.98-1.31,1.51
			c-0.29,0.37-0.67,0.82-1.15,1.35c6.77-6.59,10.16-10.32,10.16-11.19C316.82,100.91,316.4,101.27,315.76,101.91z"/>
	</g>
	<g>
		<path class="st1" d="M268,99.92c0,0.11-0.04,0.19-0.12,0.24c-7.78,7.62-12.48,12.62-14.09,15.01l16.87-12.5
			c0.13-0.11,0.27-0.11,0.4,0l0.08,0.12l0.04,0.16c0,0.32-1.59,2.08-4.76,5.28l-0.79,0.79l-0.83,0.83
			c-0.61,0.66-1.15,1.23-1.63,1.71c-1.19,1.24-1.98,2.13-2.38,2.66c0.56-0.37,1.5-1.15,2.82-2.34c0.5-0.45,1.09-0.98,1.75-1.59
			l0.83-0.79l0.44-0.36l0.36-0.4c2.12-1.96,3.43-3.12,3.93-3.49c0.45-0.34,0.77-0.44,0.95-0.28c0.05,0.05,0.08,0.12,0.08,0.2
			c0.03,0.08,0,0.16-0.08,0.24c-1.03,1.06-2.05,2.13-3.06,3.22c0.98-0.85,1.68-1.35,2.1-1.51c0.16-0.08,0.29-0.11,0.4-0.08
			l0.08,0.04l0.08,0.08l0.12,0.16c0.05,0.08,0.07,0.13,0.04,0.16c0,0.18-0.13,0.48-0.4,0.87l0.04,0.04v0.04l-0.04,0.12l-0.04,0.12
			c-0.66,0.69-1.23,1.28-1.71,1.79l-0.56,0.56c-0.98,1.03-1.73,1.87-2.26,2.5c3.52-1.72,5.37-2.5,5.56-2.34
			c0.08,0.08,0.12,0.16,0.12,0.24c0,0.08-0.03,0.16-0.08,0.24c-0.32,0.34-0.75,0.82-1.31,1.43l-0.32,0.36l-0.28,0.32
			c-0.24,0.26-0.41,0.45-0.52,0.56l1.79,0.32c0.18,0.05,0.28,0.16,0.28,0.32c-0.03,0.13-0.13,0.29-0.32,0.48
			c-0.13,0.13-0.28,0.13-0.44,0c-0.08-0.08-0.11-0.16-0.08-0.24l-1.91-0.36c-0.05,0-0.11-0.03-0.16-0.08
			c-0.11-0.11-0.08-0.26,0.08-0.48c0.19-0.24,0.78-0.93,1.79-2.06c-0.61,0.29-1.43,0.69-2.46,1.19c-0.85,0.4-1.72,0.81-2.62,1.23
			c-0.13,0.05-0.25,0.04-0.36-0.04l-0.04-0.08l-0.36,0.36l-0.32,0.28c-0.16,0.13-0.29,0.12-0.4-0.04c-0.16-0.11-0.17-0.24-0.04-0.4
			c0.48-0.58,0.97-1.15,1.47-1.71c0.63-0.74,1.23-1.42,1.79-2.02c1.51-1.59,2.53-2.51,3.06-2.78l0.16-0.2l0.12-0.16
			c-0.19,0.11-0.42,0.28-0.71,0.52c-0.37,0.26-0.79,0.62-1.27,1.07c-1.27,1.14-2.92,2.75-4.96,4.84c-0.19,0.18-0.33,0.28-0.44,0.28
			c-0.08,0-0.15-0.03-0.2-0.08c-0.08-0.05-0.12-0.13-0.12-0.24v-0.08c0.03-0.03,0.05-0.07,0.08-0.12c0.05-0.13,0.19-0.33,0.4-0.6
			c0.61-0.77,1.76-2.08,3.45-3.93c-2.67,2.51-4.47,4.11-5.4,4.8c-0.9,0.69-1.48,0.93-1.75,0.71l-0.08-0.16l-0.04-0.16
			c0-0.48,2.05-2.78,6.15-6.91c1.35-1.38,2.36-2.42,3.02-3.14l-15.64,11.63c-0.13,0.11-0.26,0.11-0.4,0l-0.08-0.16
			c-0.05-0.05-0.08-0.12-0.08-0.2c0-0.71,1.85-3.04,5.56-6.99c1.32-1.4,2.86-2.99,4.6-4.76c0.66-0.66,1.34-1.35,2.02-2.06
			c0.56-0.53,1.1-1.06,1.63-1.59c-0.95,0.61-2.65,2.04-5.08,4.29c-0.9,0.82-1.93,1.8-3.1,2.94c-0.42,0.4-0.9,0.86-1.43,1.39
			l-0.67,0.64l-0.64,0.6c-2.78,2.73-4.5,4.35-5.16,4.88c-0.58,0.5-0.97,0.66-1.15,0.48c-0.08-0.05-0.12-0.13-0.12-0.24v-0.12
			l0.08-0.08l10.24-11.39c-1.46,1.08-3.2,2.41-5.24,3.97c-4.66,3.55-7.41,5.61-8.26,6.19c-0.79,0.58-1.27,0.81-1.43,0.67
			c-0.08-0.08-0.12-0.19-0.12-0.32c-0.03-0.05-0.03-0.12,0-0.2c-1.69,1.64-2.65,2.37-2.86,2.18c-0.08-0.05-0.12-0.13-0.12-0.24
			c0-0.29,2.22-2.79,6.67-7.5c0.77-0.82,1.36-1.46,1.79-1.91c0.66-0.74,1.24-1.38,1.75-1.91c1.27-1.35,2.13-2.29,2.58-2.82
			c-1.64,0.85-5.5,4.25-11.59,10.2c-1.67,1.69-2.78,2.82-3.33,3.37c-0.16,0.13-0.32,0.13-0.48,0c-0.13-0.16-0.13-0.3,0-0.44
			c0.87-0.9,2.09-2.13,3.65-3.69c5.16-5.21,8.2-8.55,9.13-10c-1.03,0.71-3.29,2.66-6.79,5.84c-2.83,2.57-5.84,5.36-9.01,8.38
			c-0.08,0.11-0.18,0.13-0.32,0.08c-0.08-0.03-0.15-0.08-0.2-0.16c-0.53,0.45-0.93,0.69-1.19,0.71c-0.08,0-0.15-0.01-0.2-0.04
			l-0.16-0.08c-0.08-0.05-0.12-0.13-0.12-0.24c0-0.08,0.05-0.19,0.16-0.32l-0.08-0.04c-0.05-0.03-0.09-0.08-0.12-0.16
			c-0.03-0.05-0.04-0.13-0.04-0.24c0.03-0.4,0.38-1.03,1.07-1.91c-0.98,0.82-1.67,1.34-2.06,1.55c-0.16,0.08-0.28,0.12-0.36,0.12
			l-0.12-0.04l-0.04-0.04l-0.12-0.16c-0.03-0.05-0.04-0.12-0.04-0.2c0-0.11,0.04-0.25,0.12-0.44c-0.64,0.61-1.1,1.02-1.39,1.23
			l-0.12,0.16l-0.04-0.04c-0.19,0.13-0.32,0.15-0.4,0.04c-0.05-0.05-0.09-0.12-0.12-0.2c-0.03-0.08,0-0.16,0.08-0.24l9.09-10.08
			c-0.74,0.74-1.53,1.56-2.38,2.46c-3.25,3.36-5.37,5.49-6.35,6.39c-1.01,0.87-1.65,1.19-1.94,0.95c-0.08-0.08-0.12-0.17-0.12-0.28
			l-1.11,1.15c-0.13,0.16-0.28,0.17-0.44,0.04c-0.05-0.05-0.09-0.11-0.12-0.16c-0.03-0.08-0.04-0.16-0.04-0.24v-0.08l-0.32,0.32
			l-0.32,0.32c-0.13,0.16-0.28,0.16-0.44,0c-0.16-0.13-0.16-0.28,0-0.44l13.02-14.45c-0.85,0.58-2.24,1.84-4.17,3.77
			c-0.71,0.71-1.55,1.56-2.5,2.54c-0.37,0.34-0.78,0.75-1.23,1.23l-0.56,0.6l-0.52,0.56c-2.8,2.91-4.6,4.71-5.4,5.4
			c-0.79,0.69-1.31,0.93-1.55,0.71l-0.12-0.12c-0.03-0.08-0.04-0.16-0.04-0.24c0-0.45,0.73-1.52,2.18-3.22
			c1.14-1.35,2.73-3.07,4.76-5.16c-2.8,2.49-6.07,5.41-9.8,8.77c-0.16,0.16-0.3,0.16-0.44,0c-0.16-0.16-0.16-0.3,0-0.44
			c5.27-5.16,8.97-9.04,11.12-11.63c-5.82,5.77-9.9,9.57-12.23,11.39c-0.85,0.66-1.46,1.06-1.83,1.19
			c-0.13,0.05-0.24,0.07-0.32,0.04h-0.08l-0.04-0.08l-0.12-0.12c-0.03-0.05-0.04-0.12-0.04-0.2c0-0.37,0.57-1.23,1.71-2.58
			c-1.64,1.38-2.7,1.85-3.18,1.43c-0.16-0.13-0.16-0.28,0-0.44l10.8-12.03c-1.06,1.01-2.42,2.4-4.09,4.17l-8.65,9.61
			c-0.13,0.16-0.28,0.17-0.44,0.04c-0.18-0.16-0.2-0.3-0.04-0.44c0.4-0.48,0.86-1.01,1.39-1.59c0.69-0.79,1.39-1.59,2.1-2.38
			c1.96-2.2,3.72-4.12,5.28-5.76l2.14-2.42c-1.48,1.46-3.35,3.35-5.6,5.68c-1.88,1.93-3.78,3.93-5.72,5.99
			c-0.16,0.13-0.3,0.13-0.44,0c-0.08-0.05-0.12-0.13-0.12-0.24c0-0.26,1.64-2.09,4.92-5.48l0.71-0.75l0.75-0.75
			c0.58-0.61,1.1-1.15,1.55-1.63c1.19-1.27,2.12-2.26,2.78-2.98l-0.64,0.52l-0.67,0.6c-4.34,3.78-7.46,6.38-9.37,7.78
			c-1.91,1.4-3.12,1.98-3.65,1.75c-0.08,0-0.15-0.03-0.2-0.08c-0.08-0.08-0.12-0.17-0.12-0.28c0-0.34,1.15-1.8,3.45-4.37
			c1.69-1.85,3.9-4.19,6.63-7.03c-0.66,0.48-1.57,1.23-2.74,2.26c-0.45,0.4-0.94,0.83-1.47,1.31l-0.71,0.6
			c-0.16,0.16-0.36,0.34-0.6,0.56c-1.64,1.46-2.65,2.33-3.02,2.62c-0.34,0.24-0.6,0.29-0.75,0.16c-0.05-0.05-0.08-0.13-0.08-0.24
			c-0.03-0.19,2.26-2.78,6.87-7.78l-7.38,4.21c-0.16,0.11-0.29,0.08-0.4-0.08c-0.11-0.16-0.09-0.29,0.04-0.4
			c2.01-1.98,3.24-3.31,3.69-3.97c-0.26-0.13-0.99-0.42-2.18-0.87c-0.13-0.05-0.22-0.11-0.28-0.16c-0.05-0.05-0.08-0.12-0.08-0.2
			l0.04-0.12l0.08-0.12l0.08-0.08c0.13-0.16,0.28-0.16,0.44,0c0.03,0.03,0.05,0.07,0.08,0.12c1.56,0.63,2.38,0.98,2.46,1.03
			c0.08,0.08,0.12,0.17,0.12,0.28v0.04l-0.04,0.12c-0.05,0.11-0.15,0.24-0.28,0.4c-0.34,0.5-1.02,1.27-2.02,2.3l7.07-4.09
			c0.16-0.08,0.3-0.05,0.44,0.08c0.11,0.16,0.09,0.29-0.04,0.4l-0.67,0.75l-0.67,0.75l-1.47,1.63c-1.16,1.27-2.1,2.29-2.82,3.06
			l0.36-0.32c4.18-3.76,6.6-5.6,7.26-5.52l0.75-0.87c0.13-0.16,0.28-0.17,0.44-0.04l0.08,0.12l0.04,0.16
			c0,0.56-3.37,4.37-10.12,11.43l-0.44,0.44l-0.4,0.44c-0.29,0.29-0.52,0.52-0.67,0.67c0.93-0.37,2.82-1.72,5.68-4.05
			c1.03-0.85,2.18-1.81,3.45-2.9c0.48-0.42,0.98-0.86,1.51-1.31c0.21-0.19,0.44-0.38,0.67-0.6l0.28-0.24l0.28-0.24
			c1.61-1.4,2.57-2.21,2.86-2.42c0.26-0.21,0.48-0.26,0.63-0.16l0.08,0.12l0.04,0.16c0,0.11-0.04,0.22-0.12,0.36
			c1.17-1.09,1.97-1.76,2.42-2.02c0.19-0.11,0.33-0.16,0.44-0.16l0.08,0.04l0.08,0.04c0.08,0.05,0.12,0.12,0.12,0.2
			c0,0.05-0.01,0.12-0.04,0.2c0.24-0.16,0.42-0.24,0.56-0.24c0.08-0.03,0.15-0.03,0.2,0c0.05,0.03,0.09,0.07,0.12,0.12
			c0.08,0.03,0.12,0.09,0.12,0.2c0,0.08-0.03,0.16-0.08,0.24l-12.19,13.5c0.85-0.42,2.53-1.87,5.04-4.33c0.9-0.9,1.93-1.95,3.1-3.14
			c0.45-0.45,0.93-0.94,1.43-1.47l0.67-0.67l0.28-0.32l0.32-0.32c2.14-2.25,3.44-3.57,3.89-3.97c0.42-0.37,0.71-0.48,0.87-0.32
			c0.08,0.05,0.12,0.13,0.12,0.24c0,0.08-0.03,0.16-0.08,0.24c-8.47,8.34-13.24,13.48-14.33,15.44c0.9-0.56,3.04-2.42,6.43-5.6
			c2.81-2.62,5.7-5.43,8.69-8.42c0.16-0.13,0.3-0.13,0.44,0l0.12,0.12c0.03,0.05,0.04,0.12,0.04,0.2c0,0.64-1.69,2.75-5.08,6.35
			c4.98-4.45,7.85-6.95,8.61-7.5l0.08-0.08l0.12-0.12l0.04,0.04c0.16-0.11,0.29-0.12,0.4-0.04c0.05,0.05,0.08,0.13,0.08,0.24
			c-0.03,0.11-0.05,0.18-0.08,0.24c-7.67,7.46-12.03,12.12-13.06,13.97c0.45-0.34,1.26-1.11,2.42-2.3c0.48-0.48,1.03-1.05,1.67-1.71
			c0.42-0.42,1.01-1.02,1.75-1.79c3.76-3.92,6.34-6.48,7.74-7.7c1.54-1.32,2.5-1.8,2.9-1.43c0.16,0.13,0.17,0.28,0.04,0.44
			l-1.83,2.02c0.98-0.95,1.55-1.36,1.71-1.23c0.08,0.05,0.12,0.13,0.12,0.24l1.59-1.63c0.13-0.13,0.28-0.13,0.44,0
			c0.08,0.11,0.12,0.21,0.12,0.32c0,0.56-2.24,3.04-6.71,7.46l-0.83,0.87l-0.91,0.87c-0.66,0.69-1.23,1.26-1.71,1.71
			c-1.22,1.27-2.04,2.17-2.46,2.7c0.61-0.48,1.64-1.44,3.1-2.9c0.56-0.56,1.2-1.22,1.94-1.98l0.99-1.03l0.91-0.95
			c2.99-3.1,4.92-5.03,5.8-5.8c0.77-0.66,1.27-0.89,1.51-0.67c0.05,0.05,0.08,0.12,0.08,0.2c0.03,0.08,0,0.16-0.08,0.24l-5.64,6.27
			c1.03-1.06,2.16-2.18,3.37-3.37c0.42-0.42,0.86-0.86,1.31-1.31c0.16-0.16,0.33-0.33,0.52-0.52l0.2-0.2l0.2-0.16
			c0.13-0.16,0.28-0.16,0.44,0c0.16,0.16,0.16,0.3,0,0.44c-2.94,2.99-5.62,5.72-8.06,8.18c-1.75,1.88-2.82,3.15-3.22,3.81
			c0.93-0.66,3.02-2.57,6.27-5.72c2.65-2.57,5.43-5.33,8.34-8.3c0.13-0.13,0.28-0.13,0.44,0c0.08,0.05,0.12,0.13,0.12,0.24
			c0,0.13-0.07,0.28-0.2,0.44l0.04,0.04l0.04,0.08c0.53-0.45,0.93-0.69,1.19-0.71c0.08,0,0.15,0.01,0.2,0.04l0.16,0.08
			c0.05,0.05,0.09,0.11,0.12,0.16c0.05,0.11,0.08,0.21,0.08,0.32c0,0.61-0.9,1.92-2.7,3.93c2.22-1.96,3.76-3.22,4.6-3.77
			c0.34-0.21,0.58-0.33,0.71-0.36c0.08,0,0.13,0.01,0.16,0.04l0.08,0.04c0.11,0.08,0.16,0.18,0.16,0.32c0,0.42-0.85,1.61-2.54,3.57
			c2.94-2.54,4.66-3.6,5.16-3.18c0.05,0.08,0.08,0.16,0.08,0.24c0,0.29-2.21,2.79-6.63,7.5l-0.87,0.91l-0.87,0.95
			c2.96-3.02,6.14-6.29,9.53-9.81c0.16-0.16,0.3-0.17,0.44-0.04l0.08,0.16l0.08,0.16c0,0.42-1.89,2.5-5.68,6.23
			c-0.64,0.64-1.16,1.16-1.59,1.59c-0.61,0.61-1.15,1.15-1.63,1.63c-1.19,1.22-2.02,2.12-2.5,2.7c0.74-0.53,1.96-1.43,3.65-2.7
			c1.11-0.85,2.66-2.02,4.64-3.53c4.55-3.44,7.07-5.29,7.54-5.56l0.04-0.04c0.19-0.11,0.33-0.12,0.44-0.04
			c0.08,0.08,0.12,0.16,0.12,0.24c0,0.08-0.03,0.16-0.08,0.24l-8.77,9.73l0.99-0.99l1.03-0.99c4.31-4.21,7.32-7.01,9.01-8.42
			c1.96-1.61,3.16-2.22,3.61-1.83C267.93,99.76,267.97,99.84,268,99.92z M237.83,111.23c1.24-1.35,2.82-3.07,4.72-5.16
			c-0.95,0.93-1.75,1.71-2.38,2.34c-0.95,0.95-1.79,1.8-2.5,2.54c-1.85,1.91-2.95,3.18-3.29,3.81
			C234.96,114.24,236.11,113.06,237.83,111.23z M247.68,101.91c-0.64,1.16-2.78,3.59-6.43,7.26c-0.4,0.48-0.83,0.98-1.31,1.51
			c-0.29,0.37-0.67,0.82-1.15,1.35c6.77-6.59,10.16-10.32,10.16-11.19C248.73,100.91,248.31,101.27,247.68,101.91z"/>
	</g>
	<g>
		<path class="st0" d="M198.9,99.92c0,0.11-0.04,0.19-0.12,0.24c-7.78,7.62-12.48,12.62-14.09,15.01l16.87-12.5
			c0.13-0.11,0.27-0.11,0.4,0l0.08,0.12l0.04,0.16c0,0.32-1.59,2.08-4.76,5.28l-0.79,0.79l-0.83,0.83
			c-0.61,0.66-1.15,1.23-1.63,1.71c-1.19,1.24-1.98,2.13-2.38,2.66c0.56-0.37,1.5-1.15,2.82-2.34c0.5-0.45,1.09-0.98,1.75-1.59
			l0.83-0.79l0.44-0.36l0.36-0.4c2.12-1.96,3.43-3.12,3.93-3.49c0.45-0.34,0.77-0.44,0.95-0.28c0.05,0.05,0.08,0.12,0.08,0.2
			c0.03,0.08,0,0.16-0.08,0.24c-1.03,1.06-2.05,2.13-3.06,3.22c0.98-0.85,1.68-1.35,2.1-1.51c0.16-0.08,0.29-0.11,0.4-0.08
			l0.08,0.04l0.08,0.08l0.12,0.16c0.05,0.08,0.07,0.13,0.04,0.16c0,0.18-0.13,0.48-0.4,0.87l0.04,0.04v0.04l-0.04,0.12l-0.04,0.12
			c-0.66,0.69-1.23,1.28-1.71,1.79l-0.56,0.56c-0.98,1.03-1.73,1.87-2.26,2.5c3.52-1.72,5.37-2.5,5.56-2.34
			c0.08,0.08,0.12,0.16,0.12,0.24c0,0.08-0.03,0.16-0.08,0.24c-0.32,0.34-0.75,0.82-1.31,1.43l-0.32,0.36l-0.28,0.32
			c-0.24,0.26-0.41,0.45-0.52,0.56l1.79,0.32c0.18,0.05,0.28,0.16,0.28,0.32c-0.03,0.13-0.13,0.29-0.32,0.48
			c-0.13,0.13-0.28,0.13-0.44,0c-0.08-0.08-0.11-0.16-0.08-0.24l-1.91-0.36c-0.05,0-0.11-0.03-0.16-0.08
			c-0.11-0.11-0.08-0.26,0.08-0.48c0.19-0.24,0.78-0.93,1.79-2.06c-0.61,0.29-1.43,0.69-2.46,1.19c-0.85,0.4-1.72,0.81-2.62,1.23
			c-0.13,0.05-0.25,0.04-0.36-0.04l-0.04-0.08l-0.36,0.36l-0.32,0.28c-0.16,0.13-0.29,0.12-0.4-0.04c-0.16-0.11-0.17-0.24-0.04-0.4
			c0.48-0.58,0.97-1.15,1.47-1.71c0.63-0.74,1.23-1.42,1.79-2.02c1.51-1.59,2.53-2.51,3.06-2.78l0.16-0.2l0.12-0.16
			c-0.19,0.11-0.42,0.28-0.71,0.52c-0.37,0.26-0.79,0.62-1.27,1.07c-1.27,1.14-2.92,2.75-4.96,4.84c-0.19,0.18-0.33,0.28-0.44,0.28
			c-0.08,0-0.15-0.03-0.2-0.08c-0.08-0.05-0.12-0.13-0.12-0.24v-0.08c0.03-0.03,0.05-0.07,0.08-0.12c0.05-0.13,0.19-0.33,0.4-0.6
			c0.61-0.77,1.76-2.08,3.45-3.93c-2.67,2.51-4.47,4.11-5.4,4.8c-0.9,0.69-1.48,0.93-1.75,0.71l-0.08-0.16l-0.04-0.16
			c0-0.48,2.05-2.78,6.15-6.91c1.35-1.38,2.36-2.42,3.02-3.14l-15.64,11.63c-0.13,0.11-0.26,0.11-0.4,0l-0.08-0.16
			c-0.05-0.05-0.08-0.12-0.08-0.2c0-0.71,1.85-3.04,5.56-6.99c1.32-1.4,2.86-2.99,4.6-4.76c0.66-0.66,1.34-1.35,2.02-2.06
			c0.56-0.53,1.1-1.06,1.63-1.59c-0.95,0.61-2.65,2.04-5.08,4.29c-0.9,0.82-1.93,1.8-3.1,2.94c-0.42,0.4-0.9,0.86-1.43,1.39
			l-0.67,0.64l-0.64,0.6c-2.78,2.73-4.5,4.35-5.16,4.88c-0.58,0.5-0.97,0.66-1.15,0.48c-0.08-0.05-0.12-0.13-0.12-0.24v-0.12
			l0.08-0.08l10.24-11.39c-1.46,1.08-3.2,2.41-5.24,3.97c-4.66,3.55-7.41,5.61-8.26,6.19c-0.79,0.58-1.27,0.81-1.43,0.67
			c-0.08-0.08-0.12-0.19-0.12-0.32c-0.03-0.05-0.03-0.12,0-0.2c-1.69,1.64-2.65,2.37-2.86,2.18c-0.08-0.05-0.12-0.13-0.12-0.24
			c0-0.29,2.22-2.79,6.67-7.5c0.77-0.82,1.36-1.46,1.79-1.91c0.66-0.74,1.24-1.38,1.75-1.91c1.27-1.35,2.13-2.29,2.58-2.82
			c-1.64,0.85-5.5,4.25-11.59,10.2c-1.67,1.69-2.78,2.82-3.33,3.37c-0.16,0.13-0.32,0.13-0.48,0c-0.13-0.16-0.13-0.3,0-0.44
			c0.87-0.9,2.09-2.13,3.65-3.69c5.16-5.21,8.2-8.55,9.13-10c-1.03,0.71-3.29,2.66-6.79,5.84c-2.83,2.57-5.84,5.36-9.01,8.38
			c-0.08,0.11-0.18,0.13-0.32,0.08c-0.08-0.03-0.15-0.08-0.2-0.16c-0.53,0.45-0.93,0.69-1.19,0.71c-0.08,0-0.15-0.01-0.2-0.04
			l-0.16-0.08c-0.08-0.05-0.12-0.13-0.12-0.24c0-0.08,0.05-0.19,0.16-0.32l-0.08-0.04c-0.05-0.03-0.09-0.08-0.12-0.16
			c-0.03-0.05-0.04-0.13-0.04-0.24c0.03-0.4,0.38-1.03,1.07-1.91c-0.98,0.82-1.67,1.34-2.06,1.55c-0.16,0.08-0.28,0.12-0.36,0.12
			l-0.12-0.04l-0.04-0.04l-0.12-0.16c-0.03-0.05-0.04-0.12-0.04-0.2c0-0.11,0.04-0.25,0.12-0.44c-0.64,0.61-1.1,1.02-1.39,1.23
			l-0.12,0.16l-0.04-0.04c-0.19,0.13-0.32,0.15-0.4,0.04c-0.05-0.05-0.09-0.12-0.12-0.2c-0.03-0.08,0-0.16,0.08-0.24l9.09-10.08
			c-0.74,0.74-1.53,1.56-2.38,2.46c-3.25,3.36-5.37,5.49-6.35,6.39c-1.01,0.87-1.65,1.19-1.94,0.95c-0.08-0.08-0.12-0.17-0.12-0.28
			l-1.11,1.15c-0.13,0.16-0.28,0.17-0.44,0.04c-0.05-0.05-0.09-0.11-0.12-0.16c-0.03-0.08-0.04-0.16-0.04-0.24v-0.08l-0.32,0.32
			l-0.32,0.32c-0.13,0.16-0.28,0.16-0.44,0c-0.16-0.13-0.16-0.28,0-0.44l13.02-14.45c-0.85,0.58-2.24,1.84-4.17,3.77
			c-0.71,0.71-1.55,1.56-2.5,2.54c-0.37,0.34-0.78,0.75-1.23,1.23l-0.56,0.6l-0.52,0.56c-2.8,2.91-4.6,4.71-5.4,5.4
			c-0.79,0.69-1.31,0.93-1.55,0.71l-0.12-0.12c-0.03-0.08-0.04-0.16-0.04-0.24c0-0.45,0.73-1.52,2.18-3.22
			c1.14-1.35,2.73-3.07,4.76-5.16c-2.8,2.49-6.07,5.41-9.8,8.77c-0.16,0.16-0.3,0.16-0.44,0c-0.16-0.16-0.16-0.3,0-0.44
			c5.27-5.16,8.97-9.04,11.12-11.63c-5.82,5.77-9.9,9.57-12.23,11.39c-0.85,0.66-1.46,1.06-1.83,1.19
			c-0.13,0.05-0.24,0.07-0.32,0.04h-0.08l-0.04-0.08l-0.12-0.12c-0.03-0.05-0.04-0.12-0.04-0.2c0-0.37,0.57-1.23,1.71-2.58
			c-1.64,1.38-2.7,1.85-3.18,1.43c-0.16-0.13-0.16-0.28,0-0.44l10.8-12.03c-1.06,1.01-2.42,2.4-4.09,4.17l-8.65,9.61
			c-0.13,0.16-0.28,0.17-0.44,0.04c-0.18-0.16-0.2-0.3-0.04-0.44c0.4-0.48,0.86-1.01,1.39-1.59c0.69-0.79,1.39-1.59,2.1-2.38
			c1.96-2.2,3.72-4.12,5.28-5.76l2.14-2.42c-1.48,1.46-3.35,3.35-5.6,5.68c-1.88,1.93-3.78,3.93-5.72,5.99
			c-0.16,0.13-0.3,0.13-0.44,0c-0.08-0.05-0.12-0.13-0.12-0.24c0-0.26,1.64-2.09,4.92-5.48l0.71-0.75l0.75-0.75
			c0.58-0.61,1.1-1.15,1.55-1.63c1.19-1.27,2.12-2.26,2.78-2.98l-0.64,0.52l-0.67,0.6c-4.34,3.78-7.46,6.38-9.37,7.78
			c-1.91,1.4-3.12,1.98-3.65,1.75c-0.08,0-0.15-0.03-0.2-0.08c-0.08-0.08-0.12-0.17-0.12-0.28c0-0.34,1.15-1.8,3.45-4.37
			c1.69-1.85,3.9-4.19,6.63-7.03c-0.66,0.48-1.57,1.23-2.74,2.26c-0.45,0.4-0.94,0.83-1.47,1.31l-0.71,0.6
			c-0.16,0.16-0.36,0.34-0.6,0.56c-1.64,1.46-2.65,2.33-3.02,2.62c-0.34,0.24-0.6,0.29-0.75,0.16c-0.05-0.05-0.08-0.13-0.08-0.24
			c-0.03-0.19,2.26-2.78,6.87-7.78l-7.38,4.21c-0.16,0.11-0.29,0.08-0.4-0.08c-0.11-0.16-0.09-0.29,0.04-0.4
			c2.01-1.98,3.24-3.31,3.69-3.97c-0.26-0.13-0.99-0.42-2.18-0.87c-0.13-0.05-0.22-0.11-0.28-0.16c-0.05-0.05-0.08-0.12-0.08-0.2
			l0.04-0.12l0.08-0.12l0.08-0.08c0.13-0.16,0.28-0.16,0.44,0c0.03,0.03,0.05,0.07,0.08,0.12c1.56,0.63,2.38,0.98,2.46,1.03
			c0.08,0.08,0.12,0.17,0.12,0.28v0.04l-0.04,0.12c-0.05,0.11-0.15,0.24-0.28,0.4c-0.34,0.5-1.02,1.27-2.02,2.3l7.07-4.09
			c0.16-0.08,0.3-0.05,0.44,0.08c0.11,0.16,0.09,0.29-0.04,0.4l-0.67,0.75l-0.67,0.75l-1.47,1.63c-1.16,1.27-2.1,2.29-2.82,3.06
			l0.36-0.32c4.18-3.76,6.6-5.6,7.26-5.52l0.75-0.87c0.13-0.16,0.28-0.17,0.44-0.04l0.08,0.12l0.04,0.16
			c0,0.56-3.37,4.37-10.12,11.43l-0.44,0.44l-0.4,0.44c-0.29,0.29-0.52,0.52-0.67,0.67c0.93-0.37,2.82-1.72,5.68-4.05
			c1.03-0.85,2.18-1.81,3.45-2.9c0.48-0.42,0.98-0.86,1.51-1.31c0.21-0.19,0.44-0.38,0.67-0.6l0.28-0.24l0.28-0.24
			c1.61-1.4,2.57-2.21,2.86-2.42c0.26-0.21,0.48-0.26,0.63-0.16l0.08,0.12l0.04,0.16c0,0.11-0.04,0.22-0.12,0.36
			c1.17-1.09,1.97-1.76,2.42-2.02c0.19-0.11,0.33-0.16,0.44-0.16l0.08,0.04l0.08,0.04c0.08,0.05,0.12,0.12,0.12,0.2
			c0,0.05-0.01,0.12-0.04,0.2c0.24-0.16,0.42-0.24,0.56-0.24c0.08-0.03,0.15-0.03,0.2,0c0.05,0.03,0.09,0.07,0.12,0.12
			c0.08,0.03,0.12,0.09,0.12,0.2c0,0.08-0.03,0.16-0.08,0.24l-12.19,13.5c0.85-0.42,2.53-1.87,5.04-4.33c0.9-0.9,1.93-1.95,3.1-3.14
			c0.45-0.45,0.93-0.94,1.43-1.47l0.67-0.67l0.28-0.32l0.32-0.32c2.14-2.25,3.44-3.57,3.89-3.97c0.42-0.37,0.71-0.48,0.87-0.32
			c0.08,0.05,0.12,0.13,0.12,0.24c0,0.08-0.03,0.16-0.08,0.24c-8.47,8.34-13.24,13.48-14.33,15.44c0.9-0.56,3.04-2.42,6.43-5.6
			c2.81-2.62,5.7-5.43,8.69-8.42c0.16-0.13,0.3-0.13,0.44,0l0.12,0.12c0.03,0.05,0.04,0.12,0.04,0.2c0,0.64-1.69,2.75-5.08,6.35
			c4.98-4.45,7.85-6.95,8.61-7.5l0.08-0.08l0.12-0.12l0.04,0.04c0.16-0.11,0.29-0.12,0.4-0.04c0.05,0.05,0.08,0.13,0.08,0.24
			c-0.03,0.11-0.05,0.18-0.08,0.24c-7.67,7.46-12.03,12.12-13.06,13.97c0.45-0.34,1.26-1.11,2.42-2.3c0.48-0.48,1.03-1.05,1.67-1.71
			c0.42-0.42,1.01-1.02,1.75-1.79c3.76-3.92,6.34-6.48,7.74-7.7c1.54-1.32,2.5-1.8,2.9-1.43c0.16,0.13,0.17,0.28,0.04,0.44
			l-1.83,2.02c0.98-0.95,1.55-1.36,1.71-1.23c0.08,0.05,0.12,0.13,0.12,0.24l1.59-1.63c0.13-0.13,0.28-0.13,0.44,0
			c0.08,0.11,0.12,0.21,0.12,0.32c0,0.56-2.24,3.04-6.71,7.46l-0.83,0.87l-0.91,0.87c-0.66,0.69-1.23,1.26-1.71,1.71
			c-1.22,1.27-2.04,2.17-2.46,2.7c0.61-0.48,1.64-1.44,3.1-2.9c0.56-0.56,1.2-1.22,1.94-1.98l0.99-1.03l0.91-0.95
			c2.99-3.1,4.92-5.03,5.8-5.8c0.77-0.66,1.27-0.89,1.51-0.67c0.05,0.05,0.08,0.12,0.08,0.2c0.03,0.08,0,0.16-0.08,0.24l-5.64,6.27
			c1.03-1.06,2.16-2.18,3.37-3.37c0.42-0.42,0.86-0.86,1.31-1.31c0.16-0.16,0.33-0.33,0.52-0.52l0.2-0.2l0.2-0.16
			c0.13-0.16,0.28-0.16,0.44,0c0.16,0.16,0.16,0.3,0,0.44c-2.94,2.99-5.62,5.72-8.06,8.18c-1.75,1.88-2.82,3.15-3.22,3.81
			c0.93-0.66,3.02-2.57,6.27-5.72c2.65-2.57,5.43-5.33,8.34-8.3c0.13-0.13,0.28-0.13,0.44,0c0.08,0.05,0.12,0.13,0.12,0.24
			c0,0.13-0.07,0.28-0.2,0.44l0.04,0.04l0.04,0.08c0.53-0.45,0.93-0.69,1.19-0.71c0.08,0,0.15,0.01,0.2,0.04l0.16,0.08
			c0.05,0.05,0.09,0.11,0.12,0.16c0.05,0.11,0.08,0.21,0.08,0.32c0,0.61-0.9,1.92-2.7,3.93c2.22-1.96,3.76-3.22,4.6-3.77
			c0.34-0.21,0.58-0.33,0.71-0.36c0.08,0,0.13,0.01,0.16,0.04l0.08,0.04c0.11,0.08,0.16,0.18,0.16,0.32c0,0.42-0.85,1.61-2.54,3.57
			c2.94-2.54,4.66-3.6,5.16-3.18c0.05,0.08,0.08,0.16,0.08,0.24c0,0.29-2.21,2.79-6.63,7.5l-0.87,0.91l-0.87,0.95
			c2.96-3.02,6.14-6.29,9.53-9.81c0.16-0.16,0.3-0.17,0.44-0.04l0.08,0.16l0.08,0.16c0,0.42-1.89,2.5-5.68,6.23
			c-0.64,0.64-1.16,1.16-1.59,1.59c-0.61,0.61-1.15,1.15-1.63,1.63c-1.19,1.22-2.02,2.12-2.5,2.7c0.74-0.53,1.96-1.43,3.65-2.7
			c1.11-0.85,2.66-2.02,4.64-3.53c4.55-3.44,7.07-5.29,7.54-5.56l0.04-0.04c0.19-0.11,0.33-0.12,0.44-0.04
			c0.08,0.08,0.12,0.16,0.12,0.24c0,0.08-0.03,0.16-0.08,0.24l-8.77,9.73l0.99-0.99l1.03-0.99c4.31-4.21,7.32-7.01,9.01-8.42
			c1.96-1.61,3.16-2.22,3.61-1.83C198.83,99.76,198.87,99.84,198.9,99.92z M168.73,111.23c1.24-1.35,2.82-3.07,4.72-5.16
			c-0.95,0.93-1.75,1.71-2.38,2.34c-0.95,0.95-1.79,1.8-2.5,2.54c-1.85,1.91-2.95,3.18-3.29,3.81
			C165.86,114.24,167.01,113.06,168.73,111.23z M178.57,101.91c-0.64,1.16-2.78,3.59-6.43,7.26c-0.4,0.48-0.83,0.98-1.31,1.51
			c-0.29,0.37-0.67,0.82-1.15,1.35c6.77-6.59,10.16-10.32,10.16-11.19C179.63,100.91,179.21,101.27,178.57,101.91z"/>
	</g>
	<g>
		<path class="st1" d="M130.81,99.92c0,0.11-0.04,0.19-0.12,0.24c-7.78,7.62-12.48,12.62-14.09,15.01l16.87-12.5
			c0.13-0.11,0.27-0.11,0.4,0l0.08,0.12l0.04,0.16c0,0.32-1.59,2.08-4.76,5.28l-0.79,0.79l-0.83,0.83
			c-0.61,0.66-1.15,1.23-1.63,1.71c-1.19,1.24-1.98,2.13-2.38,2.66c0.56-0.37,1.5-1.15,2.82-2.34c0.5-0.45,1.09-0.98,1.75-1.59
			l0.83-0.79l0.44-0.36l0.36-0.4c2.12-1.96,3.43-3.12,3.93-3.49c0.45-0.34,0.77-0.44,0.95-0.28c0.05,0.05,0.08,0.12,0.08,0.2
			c0.03,0.08,0,0.16-0.08,0.24c-1.03,1.06-2.05,2.13-3.06,3.22c0.98-0.85,1.68-1.35,2.1-1.51c0.16-0.08,0.29-0.11,0.4-0.08
			l0.08,0.04l0.08,0.08l0.12,0.16c0.05,0.08,0.07,0.13,0.04,0.16c0,0.18-0.13,0.48-0.4,0.87l0.04,0.04v0.04l-0.04,0.12l-0.04,0.12
			c-0.66,0.69-1.23,1.28-1.71,1.79l-0.56,0.56c-0.98,1.03-1.73,1.87-2.26,2.5c3.52-1.72,5.37-2.5,5.56-2.34
			c0.08,0.08,0.12,0.16,0.12,0.24c0,0.08-0.03,0.16-0.08,0.24c-0.32,0.34-0.75,0.82-1.31,1.43l-0.32,0.36l-0.28,0.32
			c-0.24,0.26-0.41,0.45-0.52,0.56l1.79,0.32c0.18,0.05,0.28,0.16,0.28,0.32c-0.03,0.13-0.13,0.29-0.32,0.48
			c-0.13,0.13-0.28,0.13-0.44,0c-0.08-0.08-0.11-0.16-0.08-0.24l-1.91-0.36c-0.05,0-0.11-0.03-0.16-0.08
			c-0.11-0.11-0.08-0.26,0.08-0.48c0.19-0.24,0.78-0.93,1.79-2.06c-0.61,0.29-1.43,0.69-2.46,1.19c-0.85,0.4-1.72,0.81-2.62,1.23
			c-0.13,0.05-0.25,0.04-0.36-0.04l-0.04-0.08l-0.36,0.36l-0.32,0.28c-0.16,0.13-0.29,0.12-0.4-0.04c-0.16-0.11-0.17-0.24-0.04-0.4
			c0.48-0.58,0.97-1.15,1.47-1.71c0.63-0.74,1.23-1.42,1.79-2.02c1.51-1.59,2.53-2.51,3.06-2.78l0.16-0.2l0.12-0.16
			c-0.19,0.11-0.42,0.28-0.71,0.52c-0.37,0.26-0.79,0.62-1.27,1.07c-1.27,1.14-2.92,2.75-4.96,4.84c-0.19,0.18-0.33,0.28-0.44,0.28
			c-0.08,0-0.15-0.03-0.2-0.08c-0.08-0.05-0.12-0.13-0.12-0.24v-0.08c0.03-0.03,0.05-0.07,0.08-0.12c0.05-0.13,0.19-0.33,0.4-0.6
			c0.61-0.77,1.76-2.08,3.45-3.93c-2.67,2.51-4.47,4.11-5.4,4.8c-0.9,0.69-1.48,0.93-1.75,0.71l-0.08-0.16l-0.04-0.16
			c0-0.48,2.05-2.78,6.15-6.91c1.35-1.38,2.36-2.42,3.02-3.14l-15.64,11.63c-0.13,0.11-0.26,0.11-0.4,0l-0.08-0.16
			c-0.05-0.05-0.08-0.12-0.08-0.2c0-0.71,1.85-3.04,5.56-6.99c1.32-1.4,2.86-2.99,4.6-4.76c0.66-0.66,1.34-1.35,2.02-2.06
			c0.56-0.53,1.1-1.06,1.63-1.59c-0.95,0.61-2.65,2.04-5.08,4.29c-0.9,0.82-1.93,1.8-3.1,2.94c-0.42,0.4-0.9,0.86-1.43,1.39
			l-0.67,0.64l-0.64,0.6c-2.78,2.73-4.5,4.35-5.16,4.88c-0.58,0.5-0.97,0.66-1.15,0.48c-0.08-0.05-0.12-0.13-0.12-0.24v-0.12
			l0.08-0.08l10.24-11.39c-1.46,1.08-3.2,2.41-5.24,3.97c-4.66,3.55-7.41,5.61-8.26,6.19c-0.79,0.58-1.27,0.81-1.43,0.67
			c-0.08-0.08-0.12-0.19-0.12-0.32c-0.03-0.05-0.03-0.12,0-0.2c-1.69,1.64-2.65,2.37-2.86,2.18c-0.08-0.05-0.12-0.13-0.12-0.24
			c0-0.29,2.22-2.79,6.67-7.5c0.77-0.82,1.36-1.46,1.79-1.91c0.66-0.74,1.24-1.38,1.75-1.91c1.27-1.35,2.13-2.29,2.58-2.82
			c-1.64,0.85-5.5,4.25-11.59,10.2c-1.67,1.69-2.78,2.82-3.33,3.37c-0.16,0.13-0.32,0.13-0.48,0c-0.13-0.16-0.13-0.3,0-0.44
			c0.87-0.9,2.09-2.13,3.65-3.69c5.16-5.21,8.2-8.55,9.13-10c-1.03,0.71-3.29,2.66-6.79,5.84c-2.83,2.57-5.84,5.36-9.01,8.38
			c-0.08,0.11-0.18,0.13-0.32,0.08c-0.08-0.03-0.15-0.08-0.2-0.16c-0.53,0.45-0.93,0.69-1.19,0.71c-0.08,0-0.15-0.01-0.2-0.04
			l-0.16-0.08c-0.08-0.05-0.12-0.13-0.12-0.24c0-0.08,0.05-0.19,0.16-0.32l-0.08-0.04c-0.05-0.03-0.09-0.08-0.12-0.16
			c-0.03-0.05-0.04-0.13-0.04-0.24c0.03-0.4,0.38-1.03,1.07-1.91c-0.98,0.82-1.67,1.34-2.06,1.55c-0.16,0.08-0.28,0.12-0.36,0.12
			L95,114.93l-0.04-0.04l-0.12-0.16c-0.03-0.05-0.04-0.12-0.04-0.2c0-0.11,0.04-0.25,0.12-0.44c-0.64,0.61-1.1,1.02-1.39,1.23
			l-0.12,0.16l-0.04-0.04c-0.19,0.13-0.32,0.15-0.4,0.04c-0.05-0.05-0.09-0.12-0.12-0.2c-0.03-0.08,0-0.16,0.08-0.24l9.09-10.08
			c-0.74,0.74-1.53,1.56-2.38,2.46c-3.25,3.36-5.37,5.49-6.35,6.39c-1.01,0.87-1.65,1.19-1.94,0.95c-0.08-0.08-0.12-0.17-0.12-0.28
			l-1.11,1.15c-0.13,0.16-0.28,0.17-0.44,0.04c-0.05-0.05-0.09-0.11-0.12-0.16c-0.03-0.08-0.04-0.16-0.04-0.24v-0.08l-0.32,0.32
			l-0.32,0.32c-0.13,0.16-0.28,0.16-0.44,0c-0.16-0.13-0.16-0.28,0-0.44l13.02-14.45c-0.85,0.58-2.24,1.84-4.17,3.77
			c-0.71,0.71-1.55,1.56-2.5,2.54c-0.37,0.34-0.78,0.75-1.23,1.23l-0.56,0.6l-0.52,0.56c-2.8,2.91-4.6,4.71-5.4,5.4
			c-0.79,0.69-1.31,0.93-1.55,0.71l-0.12-0.12c-0.03-0.08-0.04-0.16-0.04-0.24c0-0.45,0.73-1.52,2.18-3.22
			c1.14-1.35,2.73-3.07,4.76-5.16c-2.8,2.49-6.07,5.41-9.8,8.77c-0.16,0.16-0.3,0.16-0.44,0c-0.16-0.16-0.16-0.3,0-0.44
			c5.27-5.16,8.97-9.04,11.12-11.63c-5.82,5.77-9.9,9.57-12.23,11.39c-0.85,0.66-1.46,1.06-1.83,1.19
			c-0.13,0.05-0.24,0.07-0.32,0.04h-0.08l-0.04-0.08l-0.12-0.12c-0.03-0.05-0.04-0.12-0.04-0.2c0-0.37,0.57-1.23,1.71-2.58
			c-1.64,1.38-2.7,1.85-3.18,1.43c-0.16-0.13-0.16-0.28,0-0.44l10.8-12.03c-1.06,1.01-2.42,2.4-4.09,4.17l-8.65,9.61
			c-0.13,0.16-0.28,0.17-0.44,0.04c-0.18-0.16-0.2-0.3-0.04-0.44c0.4-0.48,0.86-1.01,1.39-1.59c0.69-0.79,1.39-1.59,2.1-2.38
			c1.96-2.2,3.72-4.12,5.28-5.76l2.14-2.42c-1.48,1.46-3.35,3.35-5.6,5.68c-1.88,1.93-3.78,3.93-5.72,5.99
			c-0.16,0.13-0.3,0.13-0.44,0c-0.08-0.05-0.12-0.13-0.12-0.24c0-0.26,1.64-2.09,4.92-5.48l0.71-0.75l0.75-0.75
			c0.58-0.61,1.1-1.15,1.55-1.63c1.19-1.27,2.12-2.26,2.78-2.98l-0.64,0.52l-0.67,0.6c-4.34,3.78-7.46,6.38-9.37,7.78
			c-1.91,1.4-3.12,1.98-3.65,1.75c-0.08,0-0.15-0.03-0.2-0.08c-0.08-0.08-0.12-0.17-0.12-0.28c0-0.34,1.15-1.8,3.45-4.37
			c1.69-1.85,3.9-4.19,6.63-7.03c-0.66,0.48-1.57,1.23-2.74,2.26c-0.45,0.4-0.94,0.83-1.47,1.31l-0.71,0.6
			c-0.16,0.16-0.36,0.34-0.6,0.56c-1.64,1.46-2.65,2.33-3.02,2.62c-0.34,0.24-0.6,0.29-0.75,0.16c-0.05-0.05-0.08-0.13-0.08-0.24
			c-0.03-0.19,2.26-2.78,6.87-7.78L70,105.99c-0.16,0.11-0.29,0.08-0.4-0.08c-0.11-0.16-0.09-0.29,0.04-0.4
			c2.01-1.98,3.24-3.31,3.69-3.97c-0.26-0.13-0.99-0.42-2.18-0.87c-0.13-0.05-0.22-0.11-0.28-0.16c-0.05-0.05-0.08-0.12-0.08-0.2
			l0.04-0.12l0.08-0.12l0.08-0.08c0.13-0.16,0.28-0.16,0.44,0c0.03,0.03,0.05,0.07,0.08,0.12c1.56,0.63,2.38,0.98,2.46,1.03
			c0.08,0.08,0.12,0.17,0.12,0.28v0.04l-0.04,0.12c-0.05,0.11-0.15,0.24-0.28,0.4c-0.34,0.5-1.02,1.27-2.02,2.3l7.07-4.09
			c0.16-0.08,0.3-0.05,0.44,0.08c0.11,0.16,0.09,0.29-0.04,0.4l-0.67,0.75l-0.67,0.75l-1.47,1.63c-1.16,1.27-2.1,2.29-2.82,3.06
			l0.36-0.32c4.18-3.76,6.6-5.6,7.26-5.52l0.75-0.87c0.13-0.16,0.28-0.17,0.44-0.04l0.08,0.12l0.04,0.16
			c0,0.56-3.37,4.37-10.12,11.43l-0.44,0.44l-0.4,0.44c-0.29,0.29-0.52,0.52-0.67,0.67c0.93-0.37,2.82-1.72,5.68-4.05
			c1.03-0.85,2.18-1.81,3.45-2.9c0.48-0.42,0.98-0.86,1.51-1.31c0.21-0.19,0.44-0.38,0.67-0.6l0.28-0.24l0.28-0.24
			c1.61-1.4,2.57-2.21,2.86-2.42c0.26-0.21,0.48-0.26,0.63-0.16l0.08,0.12l0.04,0.16c0,0.11-0.04,0.22-0.12,0.36
			c1.17-1.09,1.97-1.76,2.42-2.02c0.19-0.11,0.33-0.16,0.44-0.16l0.08,0.04l0.08,0.04c0.08,0.05,0.12,0.12,0.12,0.2
			c0,0.05-0.01,0.12-0.04,0.2c0.24-0.16,0.42-0.24,0.56-0.24c0.08-0.03,0.15-0.03,0.2,0c0.05,0.03,0.09,0.07,0.12,0.12
			c0.08,0.03,0.12,0.09,0.12,0.2c0,0.08-0.03,0.16-0.08,0.24l-12.19,13.5c0.85-0.42,2.53-1.87,5.04-4.33c0.9-0.9,1.93-1.95,3.1-3.14
			c0.45-0.45,0.93-0.94,1.43-1.47l0.67-0.67l0.28-0.32l0.32-0.32c2.14-2.25,3.44-3.57,3.89-3.97c0.42-0.37,0.71-0.48,0.87-0.32
			c0.08,0.05,0.12,0.13,0.12,0.24c0,0.08-0.03,0.16-0.08,0.24c-8.47,8.34-13.24,13.48-14.33,15.44c0.9-0.56,3.04-2.42,6.43-5.6
			c2.81-2.62,5.7-5.43,8.69-8.42c0.16-0.13,0.3-0.13,0.44,0l0.12,0.12c0.03,0.05,0.04,0.12,0.04,0.2c0,0.64-1.69,2.75-5.08,6.35
			c4.98-4.45,7.85-6.95,8.61-7.5l0.08-0.08l0.12-0.12l0.04,0.04c0.16-0.11,0.29-0.12,0.4-0.04c0.05,0.05,0.08,0.13,0.08,0.24
			c-0.03,0.11-0.05,0.18-0.08,0.24c-7.67,7.46-12.03,12.12-13.06,13.97c0.45-0.34,1.26-1.11,2.42-2.3c0.48-0.48,1.03-1.05,1.67-1.71
			c0.42-0.42,1.01-1.02,1.75-1.79c3.76-3.92,6.34-6.48,7.74-7.7c1.54-1.32,2.5-1.8,2.9-1.43c0.16,0.13,0.17,0.28,0.04,0.44
			l-1.83,2.02c0.98-0.95,1.55-1.36,1.71-1.23c0.08,0.05,0.12,0.13,0.12,0.24l1.59-1.63c0.13-0.13,0.28-0.13,0.44,0
			c0.08,0.11,0.12,0.21,0.12,0.32c0,0.56-2.24,3.04-6.71,7.46l-0.83,0.87l-0.91,0.87c-0.66,0.69-1.23,1.26-1.71,1.71
			c-1.22,1.27-2.04,2.17-2.46,2.7c0.61-0.48,1.64-1.44,3.1-2.9c0.56-0.56,1.2-1.22,1.94-1.98l0.99-1.03l0.91-0.95
			c2.99-3.1,4.92-5.03,5.8-5.8c0.77-0.66,1.27-0.89,1.51-0.67c0.05,0.05,0.08,0.12,0.08,0.2c0.03,0.08,0,0.16-0.08,0.24l-5.64,6.27
			c1.03-1.06,2.16-2.18,3.37-3.37c0.42-0.42,0.86-0.86,1.31-1.31c0.16-0.16,0.33-0.33,0.52-0.52l0.2-0.2l0.2-0.16
			c0.13-0.16,0.28-0.16,0.44,0c0.16,0.16,0.16,0.3,0,0.44c-2.94,2.99-5.62,5.72-8.06,8.18c-1.75,1.88-2.82,3.15-3.22,3.81
			c0.93-0.66,3.02-2.57,6.27-5.72c2.65-2.57,5.43-5.33,8.34-8.3c0.13-0.13,0.28-0.13,0.44,0c0.08,0.05,0.12,0.13,0.12,0.24
			c0,0.13-0.07,0.28-0.2,0.44l0.04,0.04l0.04,0.08c0.53-0.45,0.93-0.69,1.19-0.71c0.08,0,0.15,0.01,0.2,0.04l0.16,0.08
			c0.05,0.05,0.09,0.11,0.12,0.16c0.05,0.11,0.08,0.21,0.08,0.32c0,0.61-0.9,1.92-2.7,3.93c2.22-1.96,3.76-3.22,4.6-3.77
			c0.34-0.21,0.58-0.33,0.71-0.36c0.08,0,0.13,0.01,0.16,0.04l0.08,0.04c0.11,0.08,0.16,0.18,0.16,0.32c0,0.42-0.85,1.61-2.54,3.57
			c2.94-2.54,4.66-3.6,5.16-3.18c0.05,0.08,0.08,0.16,0.08,0.24c0,0.29-2.21,2.79-6.63,7.5L110.6,110l-0.87,0.95
			c2.96-3.02,6.14-6.29,9.53-9.81c0.16-0.16,0.3-0.17,0.44-0.04l0.08,0.16l0.08,0.16c0,0.42-1.89,2.5-5.68,6.23
			c-0.64,0.64-1.16,1.16-1.59,1.59c-0.61,0.61-1.15,1.15-1.63,1.63c-1.19,1.22-2.02,2.12-2.5,2.7c0.74-0.53,1.96-1.43,3.65-2.7
			c1.11-0.85,2.66-2.02,4.64-3.53c4.55-3.44,7.07-5.29,7.54-5.56l0.04-0.04c0.19-0.11,0.33-0.12,0.44-0.04
			c0.08,0.08,0.12,0.16,0.12,0.24c0,0.08-0.03,0.16-0.08,0.24l-8.77,9.73l0.99-0.99l1.03-0.99c4.31-4.21,7.32-7.01,9.01-8.42
			c1.96-1.61,3.16-2.22,3.61-1.83C130.74,99.76,130.78,99.84,130.81,99.92z M100.64,111.23c1.24-1.35,2.82-3.07,4.72-5.16
			c-0.95,0.93-1.75,1.71-2.38,2.34c-0.95,0.95-1.79,1.8-2.5,2.54c-1.85,1.91-2.95,3.18-3.29,3.81
			C97.77,114.24,98.92,113.06,100.64,111.23z M110.48,101.91c-0.64,1.16-2.78,3.59-6.43,7.26c-0.4,0.48-0.83,0.98-1.31,1.51
			c-0.29,0.37-0.67,0.82-1.15,1.35c6.77-6.59,10.16-10.32,10.16-11.19C111.54,100.91,111.12,101.27,110.48,101.91z"/>
	</g>
	<g>
		<path class="st0" d="M62.72,99.92c0,0.11-0.04,0.19-0.12,0.24c-7.78,7.62-12.48,12.62-14.09,15.01l16.87-12.5
			c0.13-0.11,0.27-0.11,0.4,0l0.08,0.12l0.04,0.16c0,0.32-1.59,2.08-4.76,5.28l-0.79,0.79l-0.83,0.83
			c-0.61,0.66-1.15,1.23-1.63,1.71c-1.19,1.24-1.98,2.13-2.38,2.66c0.56-0.37,1.5-1.15,2.82-2.34c0.5-0.45,1.09-0.98,1.75-1.59
			l0.83-0.79l0.44-0.36l0.36-0.4c2.12-1.96,3.43-3.12,3.93-3.49c0.45-0.34,0.77-0.44,0.95-0.28c0.05,0.05,0.08,0.12,0.08,0.2
			c0.03,0.08,0,0.16-0.08,0.24c-1.03,1.06-2.05,2.13-3.06,3.22c0.98-0.85,1.68-1.35,2.1-1.51c0.16-0.08,0.29-0.11,0.4-0.08
			l0.08,0.04l0.08,0.08l0.12,0.16c0.05,0.08,0.07,0.13,0.04,0.16c0,0.18-0.13,0.48-0.4,0.87l0.04,0.04v0.04l-0.04,0.12l-0.04,0.12
			c-0.66,0.69-1.23,1.28-1.71,1.79L63.64,111c-0.98,1.03-1.73,1.87-2.26,2.5c3.52-1.72,5.37-2.5,5.56-2.34
			c0.08,0.08,0.12,0.16,0.12,0.24c0,0.08-0.03,0.16-0.08,0.24c-0.32,0.34-0.75,0.82-1.31,1.43l-0.32,0.36l-0.28,0.32
			c-0.24,0.26-0.41,0.45-0.52,0.56l1.79,0.32c0.18,0.05,0.28,0.16,0.28,0.32c-0.03,0.13-0.13,0.29-0.32,0.48
			c-0.13,0.13-0.28,0.13-0.44,0c-0.08-0.08-0.11-0.16-0.08-0.24l-1.91-0.36c-0.05,0-0.11-0.03-0.16-0.08
			c-0.11-0.11-0.08-0.26,0.08-0.48c0.19-0.24,0.78-0.93,1.79-2.06c-0.61,0.29-1.43,0.69-2.46,1.19c-0.85,0.4-1.72,0.81-2.62,1.23
			c-0.13,0.05-0.25,0.04-0.36-0.04l-0.04-0.08l-0.36,0.36l-0.32,0.28c-0.16,0.13-0.29,0.12-0.4-0.04c-0.16-0.11-0.17-0.24-0.04-0.4
			c0.48-0.58,0.97-1.15,1.47-1.71c0.63-0.74,1.23-1.42,1.79-2.02c1.51-1.59,2.53-2.51,3.06-2.78l0.16-0.2l0.12-0.16
			c-0.19,0.11-0.42,0.28-0.71,0.52c-0.37,0.26-0.79,0.62-1.27,1.07c-1.27,1.14-2.92,2.75-4.96,4.84c-0.19,0.18-0.33,0.28-0.44,0.28
			c-0.08,0-0.15-0.03-0.2-0.08c-0.08-0.05-0.12-0.13-0.12-0.24v-0.08c0.03-0.03,0.05-0.07,0.08-0.12c0.05-0.13,0.19-0.33,0.4-0.6
			c0.61-0.77,1.76-2.08,3.45-3.93c-2.67,2.51-4.47,4.11-5.4,4.8c-0.9,0.69-1.48,0.93-1.75,0.71l-0.08-0.16l-0.04-0.16
			c0-0.48,2.05-2.78,6.15-6.91c1.35-1.38,2.36-2.42,3.02-3.14l-15.64,11.63c-0.13,0.11-0.26,0.11-0.4,0l-0.08-0.16
			c-0.05-0.05-0.08-0.12-0.08-0.2c0-0.71,1.85-3.04,5.56-6.99c1.32-1.4,2.86-2.99,4.6-4.76c0.66-0.66,1.34-1.35,2.02-2.06
			c0.56-0.53,1.1-1.06,1.63-1.59c-0.95,0.61-2.65,2.04-5.08,4.29c-0.9,0.82-1.93,1.8-3.1,2.94c-0.42,0.4-0.9,0.86-1.43,1.39
			l-0.67,0.64l-0.64,0.6c-2.78,2.73-4.5,4.35-5.16,4.88c-0.58,0.5-0.97,0.66-1.15,0.48c-0.08-0.05-0.12-0.13-0.12-0.24v-0.12
			l0.08-0.08l10.24-11.39c-1.46,1.08-3.2,2.41-5.24,3.97c-4.66,3.55-7.41,5.61-8.26,6.19c-0.79,0.58-1.27,0.81-1.43,0.67
			c-0.08-0.08-0.12-0.19-0.12-0.32c-0.03-0.05-0.03-0.12,0-0.2c-1.69,1.64-2.65,2.37-2.86,2.18c-0.08-0.05-0.12-0.13-0.12-0.24
			c0-0.29,2.22-2.79,6.67-7.5c0.77-0.82,1.36-1.46,1.79-1.91c0.66-0.74,1.24-1.38,1.75-1.91c1.27-1.35,2.13-2.29,2.58-2.82
			c-1.64,0.85-5.5,4.25-11.59,10.2c-1.67,1.69-2.78,2.82-3.33,3.37c-0.16,0.13-0.32,0.13-0.48,0c-0.13-0.16-0.13-0.3,0-0.44
			c0.87-0.9,2.09-2.13,3.65-3.69c5.16-5.21,8.2-8.55,9.13-10c-1.03,0.71-3.29,2.66-6.79,5.84c-2.83,2.57-5.84,5.36-9.01,8.38
			c-0.08,0.11-0.18,0.13-0.32,0.08c-0.08-0.03-0.15-0.08-0.2-0.16c-0.53,0.45-0.93,0.69-1.19,0.71c-0.08,0-0.15-0.01-0.2-0.04
			l-0.16-0.08c-0.08-0.05-0.12-0.13-0.12-0.24c0-0.08,0.05-0.19,0.16-0.32l-0.08-0.04c-0.05-0.03-0.09-0.08-0.12-0.16
			c-0.03-0.05-0.04-0.13-0.04-0.24c0.03-0.4,0.38-1.03,1.07-1.91c-0.98,0.82-1.67,1.34-2.06,1.55c-0.16,0.08-0.28,0.12-0.36,0.12
			l-0.12-0.04l-0.04-0.04l-0.12-0.16c-0.03-0.05-0.04-0.12-0.04-0.2c0-0.11,0.04-0.25,0.12-0.44c-0.64,0.61-1.1,1.02-1.39,1.23
			l-0.12,0.16l-0.04-0.04c-0.19,0.13-0.32,0.15-0.4,0.04c-0.05-0.05-0.09-0.12-0.12-0.2c-0.03-0.08,0-0.16,0.08-0.24l9.09-10.08
			c-0.74,0.74-1.53,1.56-2.38,2.46c-3.25,3.36-5.37,5.49-6.35,6.39c-1.01,0.87-1.65,1.19-1.94,0.95c-0.08-0.08-0.12-0.17-0.12-0.28
			l-1.11,1.15c-0.13,0.16-0.28,0.17-0.44,0.04c-0.05-0.05-0.09-0.11-0.12-0.16c-0.03-0.08-0.04-0.16-0.04-0.24v-0.08l-0.32,0.32
			l-0.32,0.32c-0.13,0.16-0.28,0.16-0.44,0c-0.16-0.13-0.16-0.28,0-0.44l13.02-14.45c-0.85,0.58-2.24,1.84-4.17,3.77
			c-0.71,0.71-1.55,1.56-2.5,2.54c-0.37,0.34-0.78,0.75-1.23,1.23l-0.56,0.6l-0.52,0.56c-2.8,2.91-4.6,4.71-5.4,5.4
			c-0.79,0.69-1.31,0.93-1.55,0.71l-0.12-0.12c-0.03-0.08-0.04-0.16-0.04-0.24c0-0.45,0.73-1.52,2.18-3.22
			c1.14-1.35,2.73-3.07,4.76-5.16c-2.8,2.49-6.07,5.41-9.8,8.77c-0.16,0.16-0.3,0.16-0.44,0c-0.16-0.16-0.16-0.3,0-0.44
			c5.27-5.16,8.97-9.04,11.12-11.63c-5.82,5.77-9.9,9.57-12.23,11.39c-0.85,0.66-1.46,1.06-1.83,1.19
			c-0.13,0.05-0.24,0.07-0.32,0.04h-0.08l-0.04-0.08l-0.12-0.12c-0.03-0.05-0.04-0.12-0.04-0.2c0-0.37,0.57-1.23,1.71-2.58
			c-1.64,1.38-2.7,1.85-3.18,1.43c-0.16-0.13-0.16-0.28,0-0.44l10.8-12.03c-1.06,1.01-2.42,2.4-4.09,4.17l-8.65,9.61
			c-0.13,0.16-0.28,0.17-0.44,0.04c-0.18-0.16-0.2-0.3-0.04-0.44c0.4-0.48,0.86-1.01,1.39-1.59c0.69-0.79,1.39-1.59,2.1-2.38
			c1.96-2.2,3.72-4.12,5.28-5.76l2.14-2.42c-1.48,1.46-3.35,3.35-5.6,5.68c-1.88,1.93-3.78,3.93-5.72,5.99
			c-0.16,0.13-0.3,0.13-0.44,0c-0.08-0.05-0.12-0.13-0.12-0.24c0-0.26,1.64-2.09,4.92-5.48l0.71-0.75l0.75-0.75
			c0.58-0.61,1.1-1.15,1.55-1.63c1.19-1.27,2.12-2.26,2.78-2.98l-0.64,0.52l-0.67,0.6c-4.34,3.78-7.46,6.38-9.37,7.78
			c-1.91,1.4-3.12,1.98-3.65,1.75c-0.08,0-0.15-0.03-0.2-0.08c-0.08-0.08-0.12-0.17-0.12-0.28c0-0.34,1.15-1.8,3.45-4.37
			c1.69-1.85,3.9-4.19,6.63-7.03c-0.66,0.48-1.57,1.23-2.74,2.26c-0.45,0.4-0.94,0.83-1.47,1.31l-0.71,0.6
			c-0.16,0.16-0.36,0.34-0.6,0.56c-1.64,1.46-2.65,2.33-3.02,2.62c-0.34,0.24-0.6,0.29-0.75,0.16c-0.05-0.05-0.08-0.13-0.08-0.24
			c-0.03-0.19,2.26-2.78,6.87-7.78l-7.38,4.21c-0.16,0.11-0.29,0.08-0.4-0.08c-0.11-0.16-0.09-0.29,0.04-0.4
			c2.01-1.98,3.24-3.31,3.69-3.97c-0.26-0.13-0.99-0.42-2.18-0.87c-0.13-0.05-0.22-0.11-0.28-0.16c-0.05-0.05-0.08-0.12-0.08-0.2
			l0.04-0.12l0.08-0.12L2.9,100c0.13-0.16,0.28-0.16,0.44,0c0.03,0.03,0.05,0.07,0.08,0.12c1.56,0.63,2.38,0.98,2.46,1.03
			c0.08,0.08,0.12,0.17,0.12,0.28v0.04l-0.04,0.12c-0.05,0.11-0.15,0.24-0.28,0.4c-0.34,0.5-1.02,1.27-2.02,2.3l7.07-4.09
			c0.16-0.08,0.3-0.05,0.44,0.08c0.11,0.16,0.09,0.29-0.04,0.4l-0.67,0.75l-0.67,0.75l-1.47,1.63c-1.16,1.27-2.1,2.29-2.82,3.06
			l0.36-0.32c4.18-3.76,6.6-5.6,7.26-5.52l0.75-0.87c0.13-0.16,0.28-0.17,0.44-0.04l0.08,0.12l0.04,0.16
			c0,0.56-3.37,4.37-10.12,11.43l-0.44,0.44l-0.4,0.44c-0.29,0.29-0.52,0.52-0.67,0.67c0.93-0.37,2.82-1.72,5.68-4.05
			c1.03-0.85,2.18-1.81,3.45-2.9c0.48-0.42,0.98-0.86,1.51-1.31c0.21-0.19,0.44-0.38,0.67-0.6l0.28-0.24l0.28-0.24
			c1.61-1.4,2.57-2.21,2.86-2.42c0.26-0.21,0.48-0.26,0.63-0.16l0.08,0.12l0.04,0.16c0,0.11-0.04,0.22-0.12,0.36
			c1.17-1.09,1.97-1.76,2.42-2.02c0.19-0.11,0.33-0.16,0.44-0.16l0.08,0.04l0.08,0.04c0.08,0.05,0.12,0.12,0.12,0.2
			c0,0.05-0.01,0.12-0.04,0.2c0.24-0.16,0.42-0.24,0.56-0.24c0.08-0.03,0.15-0.03,0.2,0c0.05,0.03,0.09,0.07,0.12,0.12
			c0.08,0.03,0.12,0.09,0.12,0.2c0,0.08-0.03,0.16-0.08,0.24l-12.19,13.5c0.85-0.42,2.53-1.87,5.04-4.33c0.9-0.9,1.93-1.95,3.1-3.14
			c0.45-0.45,0.93-0.94,1.43-1.47l0.67-0.67l0.28-0.32l0.32-0.32c2.14-2.25,3.44-3.57,3.89-3.97c0.42-0.37,0.71-0.48,0.87-0.32
			c0.08,0.05,0.12,0.13,0.12,0.24c0,0.08-0.03,0.16-0.08,0.24c-8.47,8.34-13.24,13.48-14.33,15.44c0.9-0.56,3.04-2.42,6.43-5.6
			c2.81-2.62,5.7-5.43,8.69-8.42c0.16-0.13,0.3-0.13,0.44,0l0.12,0.12c0.03,0.05,0.04,0.12,0.04,0.2c0,0.64-1.69,2.75-5.08,6.35
			c4.98-4.45,7.85-6.95,8.61-7.5l0.08-0.08l0.12-0.12l0.04,0.04c0.16-0.11,0.29-0.12,0.4-0.04c0.05,0.05,0.08,0.13,0.08,0.24
			c-0.03,0.11-0.05,0.18-0.08,0.24c-7.67,7.46-12.03,12.12-13.06,13.97c0.45-0.34,1.26-1.11,2.42-2.3c0.48-0.48,1.03-1.05,1.67-1.71
			c0.42-0.42,1.01-1.02,1.75-1.79c3.76-3.92,6.34-6.48,7.74-7.7c1.54-1.32,2.5-1.8,2.9-1.43c0.16,0.13,0.17,0.28,0.04,0.44
			l-1.83,2.02c0.98-0.95,1.55-1.36,1.71-1.23c0.08,0.05,0.12,0.13,0.12,0.24l1.59-1.63c0.13-0.13,0.28-0.13,0.44,0
			c0.08,0.11,0.12,0.21,0.12,0.32c0,0.56-2.24,3.04-6.71,7.46l-0.83,0.87l-0.91,0.87c-0.66,0.69-1.23,1.26-1.71,1.71
			c-1.22,1.27-2.04,2.17-2.46,2.7c0.61-0.48,1.64-1.44,3.1-2.9c0.56-0.56,1.2-1.22,1.94-1.98l0.99-1.03l0.91-0.95
			c2.99-3.1,4.92-5.03,5.8-5.8c0.77-0.66,1.27-0.89,1.51-0.67c0.05,0.05,0.08,0.12,0.08,0.2c0.03,0.08,0,0.16-0.08,0.24l-5.64,6.27
			c1.03-1.06,2.16-2.18,3.37-3.37c0.42-0.42,0.86-0.86,1.31-1.31c0.16-0.16,0.33-0.33,0.52-0.52l0.2-0.2l0.2-0.16
			c0.13-0.16,0.28-0.16,0.44,0c0.16,0.16,0.16,0.3,0,0.44c-2.94,2.99-5.62,5.72-8.06,8.18c-1.75,1.88-2.82,3.15-3.22,3.81
			c0.93-0.66,3.02-2.57,6.27-5.72c2.65-2.57,5.43-5.33,8.34-8.3c0.13-0.13,0.28-0.13,0.44,0c0.08,0.05,0.12,0.13,0.12,0.24
			c0,0.13-0.07,0.28-0.2,0.44l0.04,0.04l0.04,0.08c0.53-0.45,0.93-0.69,1.19-0.71c0.08,0,0.15,0.01,0.2,0.04l0.16,0.08
			c0.05,0.05,0.09,0.11,0.12,0.16c0.05,0.11,0.08,0.21,0.08,0.32c0,0.61-0.9,1.92-2.7,3.93c2.22-1.96,3.76-3.22,4.6-3.77
			c0.34-0.21,0.58-0.33,0.71-0.36c0.08,0,0.13,0.01,0.16,0.04l0.08,0.04c0.11,0.08,0.16,0.18,0.16,0.32c0,0.42-0.85,1.61-2.54,3.57
			c2.94-2.54,4.66-3.6,5.16-3.18c0.05,0.08,0.08,0.16,0.08,0.24c0,0.29-2.21,2.79-6.63,7.5L42.52,110l-0.87,0.95
			c2.96-3.02,6.14-6.29,9.53-9.81c0.16-0.16,0.3-0.17,0.44-0.04l0.08,0.16l0.08,0.16c0,0.42-1.89,2.5-5.68,6.23
			c-0.64,0.64-1.16,1.16-1.59,1.59c-0.61,0.61-1.15,1.15-1.63,1.63c-1.19,1.22-2.02,2.12-2.5,2.7c0.74-0.53,1.96-1.43,3.65-2.7
			c1.11-0.85,2.66-2.02,4.64-3.53c4.55-3.44,7.07-5.29,7.54-5.56l0.04-0.04c0.19-0.11,0.33-0.12,0.44-0.04
			c0.08,0.08,0.12,0.16,0.12,0.24c0,0.08-0.03,0.16-0.08,0.24l-8.77,9.73l0.99-0.99l1.03-0.99c4.31-4.21,7.32-7.01,9.01-8.42
			c1.96-1.61,3.16-2.22,3.61-1.83C62.66,99.76,62.7,99.84,62.72,99.92z M32.55,111.23c1.24-1.35,2.82-3.07,4.72-5.16
			c-0.95,0.93-1.75,1.71-2.38,2.34c-0.95,0.95-1.79,1.8-2.5,2.54c-1.85,1.91-2.95,3.18-3.29,3.81
			C29.68,114.24,30.83,113.06,32.55,111.23z M42.4,101.91c-0.64,1.16-2.78,3.59-6.43,7.26c-0.4,0.48-0.83,0.98-1.31,1.51
			c-0.29,0.37-0.67,0.82-1.15,1.35c6.77-6.59,10.16-10.32,10.16-11.19C43.46,100.91,43.03,101.27,42.4,101.91z"/>
	</g>
</g>
<g id="Letters_00000157304595041838237640000004508057893247373495_">
	<rect x="0" y="8.34" class="st2" width="649.49" height="102.38"/>
	<text transform="matrix(1 0 0 1 0 88.293)"><tspan x="0" y="0" class="st3 st4 st5">C</tspan><tspan x="72.61" y="0" class="st0 st4 st5">h</tspan><tspan x="147.97" y="0" class="st6 st4 st5">r</tspan><tspan x="219.56" y="0" class="st1 st4 st5">o</tspan><tspan x="305.07" y="0" class="st7 st4 st5">n</tspan><tspan x="383.82" y="0" class="st0 st4 st5">i</tspan><tspan x="413.69" y="0" class="st8 st4 st5">c</tspan><tspan x="485.62" y="0" class="st1 st4 st5">l</tspan><tspan x="542.61" y="0" class="st9 st4 st5">e</tspan></text>
</g>
</svg>
