<?xml version="1.0" encoding="utf-8"?>
<!-- Generator: Adobe Illustrator 26.0.3, SVG Export Plug-In . SVG Version: 6.00 Build 0)  -->
<svg version="1.1" id="Logo" xmlns="http://www.w3.org/2000/svg" xmlns:xlink="http://www.w3.org/1999/xlink" x="0px" y="0px"
	 viewBox="0 0 1920 1080" style="enable-background:new 0 0 1920 1080;" xml:space="preserve">
<style type="text/css">
	.st0{fill:#858985;}
	.st1{font-family:'Crosshatcher';}
	.st2{font-size:81.2975px;}
	.st3{fill:#424242;}
	.st4{fill:none;}
	.st5{fill:#C14040;}
	.st6{font-size:99px;}
	.st7{fill:#4CC14C;}
	.st8{fill:#D3B537;}
	.st9{fill:#1884EF;}
	.st10{fill:#D17DD3;}
</style>
<g id="Underline">
	<text transform="matrix(-4.489665e-11 1 1 4.489665e-11 694.4946 152.3638)" class="st0 st1 st2">i</text>
	<text transform="matrix(-4.489665e-11 1 1 4.489665e-11 626.4077 152.3638)" class="st3 st1 st2">i</text>
	<text transform="matrix(-4.489665e-11 1 1 4.489665e-11 557.3052 152.3638)" class="st0 st1 st2">i</text>
	<text transform="matrix(-4.489665e-11 1 1 4.489665e-11 489.2183 152.3638)" class="st3 st1 st2">i</text>
	<text transform="matrix(-4.489665e-11 1 1 4.489665e-11 421.1313 152.3638)" class="st0 st1 st2">i</text>
	<text transform="matrix(-4.489665e-11 1 1 4.489665e-11 353.0454 152.3638)" class="st3 st1 st2">i</text>
	<text transform="matrix(-4.489665e-11 1 1 4.489665e-11 283.9419 152.3638)" class="st0 st1 st2">i</text>
	<text transform="matrix(-4.489665e-11 1 1 4.489665e-11 215.855 152.3638)" class="st3 st1 st2">i</text>
	<text transform="matrix(-4.489665e-11 1 1 4.489665e-11 147.769 152.3638)" class="st0 st1 st2">i</text>
</g>
<g id="Letters_00000157304595041838237640000004508057893247373495_">
	<rect x="81.51" y="61.62" class="st4" width="649.49" height="102.38"/>
	<text transform="matrix(1 0 0 1 81.5127 141.5693)"><tspan x="0" y="0" class="st5 st1 st6">C</tspan><tspan x="72.61" y="0" class="st0 st1 st6">h</tspan><tspan x="147.97" y="0" class="st7 st1 st6">r</tspan><tspan x="219.56" y="0" class="st3 st1 st6">o</tspan><tspan x="305.07" y="0" class="st8 st1 st6">n</tspan><tspan x="383.82" y="0" class="st0 st1 st6">i</tspan><tspan x="413.69" y="0" class="st9 st1 st6">c</tspan><tspan x="485.62" y="0" class="st3 st1 st6">l</tspan><tspan x="542.61" y="0" class="st10 st1 st6">e</tspan></text>
</g>
</svg>
